<svg version="1.1" xmlns="http://www.w3.org/2000/svg" style="display: block;" viewBox="0 0 2048 1149" width="1312" height="736" preserveAspectRatio="none">
<path transform="translate(0,0)" fill="rgb(231,231,229)" d="M 0 0 L 2048 0 L 2048 1149 L 0 1149 L 0 0 z"/>
<path transform="translate(0,0)" fill="rgb(0,0,0)" d="M 1024.22 377.438 C 1055.5 311.969 1098.44 298.717 1166.72 300.316 C 1167.45 341.119 1166.15 382.319 1166.65 423.158 C 1166.98 449.566 1166.24 473.178 1157.73 498.411 C 1149.62 517.454 1143.37 529.251 1128.51 544.036 C 1072.87 599.397 974.261 600.102 918.893 543.862 C 875.699 499.989 881.105 451.215 881.072 394.78 L 881.183 300.411 C 904.082 300.059 927.719 299.31 949.557 306.962 C 987.585 320.286 1007 342.632 1024.22 377.438 z"/>
<path transform="translate(0,0)" fill="rgb(231,231,229)" d="M 1129.56 315.351 C 1136.69 314.581 1144.3 314.706 1151.49 314.647 C 1152.19 342.341 1151.83 371.98 1151.73 399.765 C 1103.61 399.828 1066.28 421.483 1040 461.419 C 1037.22 465.547 1033.78 472.188 1031.28 476.694 C 1032.84 430.608 1023.16 394.866 1053.83 355.694 C 1073.37 330.73 1098.62 319.26 1129.56 315.351 z"/>
<path transform="translate(0,0)" fill="rgb(231,231,229)" d="M 895.983 314.964 C 898.701 314.928 901.418 314.907 904.136 314.9 C 934.857 314.845 963.206 324.008 985.207 346.059 C 1023.47 384.414 1016.83 425.569 1016.77 475.362 C 1015.46 474.573 1013.74 471.598 1012.97 470.166 C 987.844 423.718 948.732 401.757 896.016 399.426 L 895.983 314.964 z"/>
<path transform="translate(0,0)" fill="rgb(231,231,229)" d="M 1131.59 416.3 L 1134.13 415.974 L 1135.28 416.942 C 1133.95 421.738 1121.65 447.325 1118.78 453.158 C 1095.36 500.814 1081.31 533.574 1035.15 562.172 C 1033.06 563.006 1034.08 562.948 1032.02 562.553 C 1031.71 561.729 1031.26 560.583 1031.22 559.701 C 1029.9 526.331 1038.64 488.303 1058.11 461.241 C 1075.53 436.956 1102.04 420.747 1131.59 416.3 z"/>
<path transform="translate(0,0)" fill="rgb(231,231,229)" d="M 911.182 415.338 C 912.713 415.52 914.241 415.724 915.767 415.948 C 980.746 425.453 1016.25 487.774 1016.02 548.85 C 1016 554.08 1016.24 558.825 1015.46 564.036 C 973.329 542.628 949.845 496.713 930.695 456.094 C 924.724 443.429 916.045 428.097 911.182 415.338 z"/>
<path transform="translate(0,0)" fill="rgb(231,231,229)" d="M 1149.77 422.761 L 1150.95 424.484 C 1156.92 495.294 1130.6 544.476 1060.77 565.836 L 1060.64 565.717 C 1060.22 563.476 1067.22 557.866 1069.27 555.939 C 1107.29 520.25 1127.02 469.005 1149.77 422.761 z"/>
<path transform="translate(0,0)" fill="rgb(231,231,229)" d="M 896.689 423.561 C 912.169 442.582 924.478 484.284 939.372 506.324 C 951.687 524.547 961.486 542.27 978.974 557 C 981.99 559.54 985.793 563.184 988.218 566.156 C 955.109 557.952 926.933 538.076 910.384 508.071 C 895.612 481.287 895.022 453.351 896.689 423.561 z"/>
<path transform="translate(0,0)" fill="rgb(0,0,0)" d="M 1042.03 636.065 C 1065.05 635.93 1116.51 629.267 1123.29 658.068 C 1125.09 665.767 1123.74 673.866 1119.55 680.568 C 1113.42 690.24 1106.08 692.812 1095.75 695.092 L 1129.62 742.898 C 1125.35 742.859 1113.16 743.319 1110.21 741.585 C 1101.1 729.537 1086.38 708.125 1078.77 695.5 C 1072.73 694.981 1064.9 695.187 1058.71 695.177 L 1058.85 742.801 L 1041.99 742.825 L 1042.03 636.065 z"/>
<path transform="translate(0,0)" fill="rgb(231,231,229)" d="M 1058.54 640.949 C 1074.4 640.861 1104.12 637.289 1106.87 660.027 C 1108.09 670.199 1106.41 675.792 1100.1 683.765 C 1088.26 691.923 1073.07 690.022 1058.65 689.95 C 1058.4 673.769 1058.56 657.166 1058.54 640.949 z"/>
<path transform="translate(0,0)" fill="rgb(0,0,0)" d="M 1203.3 634.731 C 1204.98 634.878 1206.74 635.119 1208.43 635.325 C 1213.16 639.632 1251.93 727.513 1258.99 742.647 L 1241.15 742.739 L 1226.21 710.437 L 1209.74 710.376 C 1197.9 710.565 1186.06 710.64 1174.22 710.6 C 1170.43 719.135 1164.45 733.987 1159 741.819 C 1158.23 742.932 1156.14 742.43 1154.28 742.374 L 1153.69 740.868 C 1156.63 733.437 1164.65 718.052 1168.5 709.776 L 1203.3 634.731 z"/>
<path transform="translate(0,0)" fill="rgb(231,231,229)" d="M 1200.38 654.713 C 1203.79 658.93 1221.21 699.133 1224.14 705.732 C 1217.04 705.574 1209.4 705.726 1202.25 705.739 L 1176.27 705.975 C 1184.47 689.157 1192.27 671.693 1200.38 654.713 z"/>
<path transform="translate(0,0)" fill="rgb(0,0,0)" d="M 838.957 634.462 C 840.082 634.572 843.748 635.164 844.004 635.674 C 854.753 657.087 884.454 724.539 893.229 742.83 L 874.873 742.847 L 860.437 710.376 L 843.661 710.445 C 832.349 710.232 820.531 710.545 809.18 710.682 C 806.685 715.715 795.667 740.057 793.611 741.789 C 791.165 742.254 790.985 742.396 788.789 741.461 C 789.472 738.108 791.151 735.099 792.637 732.044 C 808.386 699.663 822.628 666.562 838.957 634.462 z"/>
<path transform="translate(0,0)" fill="rgb(231,231,229)" d="M 835.418 654.889 C 838.144 658.318 856.136 699.525 858.96 705.894 L 835.5 705.92 L 811.289 705.964 C 819.037 688.801 827.081 671.773 835.418 654.889 z"/>
<path transform="translate(0,0)" fill="rgb(0,0,0)" d="M 937.064 636.21 C 936.95 657.105 929.225 729.578 954.431 735.65 C 1023.7 752.337 990.761 661.624 1000.63 636.231 L 1002.43 635.672 L 1004.8 637.541 L 1005.06 640.75 C 1005.1 664.48 1006.99 692.107 1003.75 714.934 C 998.403 754.006 926.565 752.532 921.815 715.92 C 918.686 691.804 920.238 660.856 920.258 636.18 L 937.064 636.21 z"/>
<path transform="translate(0,0)" fill="rgb(0,0,0)" d="M 989.724 798.068 C 1001.59 796.974 1012.16 805.583 1013.48 817.43 C 1014.8 829.276 1006.4 840.002 994.577 841.552 C 986.726 842.581 978.932 839.289 974.196 832.944 C 969.461 826.599 968.522 818.19 971.743 810.957 C 974.963 803.723 981.84 798.794 989.724 798.068 z"/>
<path transform="translate(0,0)" fill="rgb(231,231,229)" d="M 989.901 803.476 C 998.936 802.504 1007.05 809.027 1008.05 818.06 C 1009.04 827.092 1002.54 835.225 993.509 836.242 C 984.448 837.261 976.281 830.73 975.283 821.667 C 974.285 812.604 980.835 804.453 989.901 803.476 z"/>
<path transform="translate(0,0)" fill="rgb(0,0,0)" d="M 1033.76 799.042 C 1038.45 798.898 1045.27 798.353 1049.75 799.04 C 1068.98 801.986 1075.06 815.936 1056.53 826.491 C 1059.56 830.39 1065.42 835.137 1064.88 840.082 L 1061.16 841.168 C 1057.52 836.803 1053.22 830.872 1049.7 826.269 C 1030.38 825.484 1043.23 832.672 1038.33 840.09 C 1035.47 840.484 1036.58 840.75 1034.29 839.243 C 1033.11 836.634 1033.52 803.898 1033.76 799.042 z"/>
<path transform="translate(0,0)" fill="rgb(231,231,229)" d="M 1039.02 804.028 C 1050.22 803.524 1067.01 803.002 1058.5 819.978 C 1052.43 822.45 1045.56 821.702 1039.04 821.462 L 1039.02 804.028 z"/>
<path transform="translate(0,0)" fill="rgb(0,0,0)" d="M 1099.11 798.727 C 1101.99 798.726 1102.52 798.662 1105.15 799.786 C 1107.93 804.466 1123.69 836.215 1122.97 839.657 L 1120.06 840.527 C 1113.73 836.586 1117.36 830.803 1109.25 829.971 L 1091.75 830.054 C 1090.07 833.863 1088.72 839.08 1084.55 840.051 L 1083.44 838.861 C 1083.03 831.937 1095.6 806.508 1099.11 798.727 z"/>
<path transform="translate(0,0)" fill="rgb(231,231,229)" d="M 1102.12 805.645 C 1104.52 809.273 1111.48 821.599 1109.1 825.586 L 1105.25 825.772 C 1100.5 825.987 1098.37 826.774 1095.17 824.287 C 1094.42 818.165 1099.02 811.634 1102.12 805.645 z"/>
<path transform="translate(0,0)" fill="rgb(0,0,0)" d="M 881.514 798.978 C 891.95 798.759 900.148 798.029 910.268 800.709 L 910.61 801.722 C 903.983 804.09 894.34 803.673 887.18 803.699 L 887.186 818.876 L 905.118 819.055 L 906.688 819.299 L 907.156 821.457 L 908.66 820.647 L 907.469 820.083 L 907.754 821.939 C 905.087 824.493 891.41 823.885 887.23 823.884 C 887.336 828.784 889.174 838.828 883.738 840.245 L 882.284 839.366 C 880.744 830.291 881.401 809.179 881.514 798.978 z"/>
<path transform="translate(0,0)" fill="rgb(0,0,0)" d="M 929.364 798.266 L 933.493 799.135 C 936.509 803.537 934.973 828.254 934.837 835.705 C 941.136 835.926 952.298 834.129 956.72 837.481 L 956.764 840.559 L 929.079 840.364 C 929.021 826.456 928.76 812.132 929.364 798.266 z"/>
<path transform="translate(0,0)" fill="rgb(0,0,0)" d="M 1140.94 798.244 C 1142.28 798.461 1143.94 798.892 1145.29 799.2 C 1147.88 804.039 1146.74 829.071 1146.77 835.953 C 1152.56 836.032 1163.49 834.413 1168 837.092 L 1168.78 840.549 C 1159.96 840.813 1149.91 840.526 1141 840.475 L 1140.94 798.244 z"/>
</svg>