<svg version="1.1" xmlns="http://www.w3.org/2000/svg" style="display: block;" viewBox="0 0 2048 1149" width="1312" height="736" preserveAspectRatio="none">
<path transform="translate(0,0)" fill="rgb(234,227,217)" d="M 0 0 L 2048 0 L 2048 1149 L 0 1149 L 0 0 z"/>
<path transform="translate(0,0)" fill="rgb(37,37,38)" d="M 1013.73 319.558 C 1102.53 314.019 1179.05 381.429 1184.75 470.221 C 1190.45 559.013 1123.18 635.654 1034.4 641.514 C 945.39 647.39 868.51 579.909 862.795 490.889 C 857.081 401.869 924.701 325.112 1013.73 319.558 z"/>
<path transform="translate(0,0)" fill="rgb(234,227,217)" d="M 1026.57 324.534 C 1031.78 327.939 1038.67 338.164 1041.22 343.915 C 1058.48 382.971 1047.58 419.01 1034.53 456.248 C 1032.35 462.763 1029.32 468.695 1026.35 474.882 C 1026.33 426.002 1025.32 372.881 1026.57 324.534 z"/>
<path transform="translate(0,0)" fill="rgb(234,227,217)" d="M 1018.87 325.695 L 1019.64 326.436 C 1021.95 332.782 1021.23 453.743 1021 471.264 L 1014.97 458.55 C 996.711 419.197 985.592 360.509 1018.87 325.695 z"/>
<path transform="translate(0,0)" fill="rgb(234,227,217)" d="M 1026.94 501.655 C 1032.14 507.093 1043.19 531.742 1045.61 539.32 C 1054.09 566.628 1051.52 596.176 1038.45 621.608 C 1036.12 625.163 1031.94 632.18 1027.53 632.468 C 1025.93 627.3 1026.8 592.39 1026.82 584.696 L 1026.94 501.655 z"/>
<path transform="translate(0,0)" fill="rgb(234,227,217)" d="M 1019.53 500.761 C 1021.1 507.683 1020.91 538.02 1020.94 545.866 L 1020.96 634.339 C 1015.94 629.28 1014.55 627.545 1010.47 621.743 C 1007.46 617.098 1004.99 612.13 1003.1 606.931 C 988.963 567.259 1003.19 535.419 1019.53 500.761 z"/>
<path transform="translate(0,0)" fill="rgb(234,227,217)" d="M 911.997 384.894 C 954.53 387.526 1003.85 439.685 1016.38 477.223 C 1012.62 475.644 999.98 465.483 996.039 462.498 C 963.301 437.7 939.004 415.985 911.997 384.894 z"/>
<path transform="translate(0,0)" fill="rgb(234,227,217)" d="M 1132.96 387.394 L 1133.47 388.905 C 1122.27 408.406 1054.55 460.353 1033.79 476.585 L 1033.48 476.42 L 1033.09 475.058 C 1054.32 435.368 1084.47 393.459 1132.96 387.394 z"/>
<path transform="translate(0,0)" fill="rgb(234,227,217)" d="M 907.187 388.535 C 909.926 389.684 921.295 403.836 924.463 407.298 C 949.101 434.212 979.462 457.061 1008.36 479.17 C 1003.27 478.77 994.655 474.901 989.341 473.254 C 943.437 459.031 909.463 443.274 907.187 388.535 z"/>
<path transform="translate(0,0)" fill="rgb(234,227,217)" d="M 978.372 491.5 C 988.412 491.115 998.462 491.056 1008.51 491.322 C 965.783 500.826 951.987 522.741 903.102 511.564 C 890.487 508.694 880.936 501.663 872.36 492.353 C 905.013 490.621 944.328 492.54 978.372 491.5 z"/>
<path transform="translate(0,0)" fill="rgb(234,227,217)" d="M 1033.6 499.548 C 1037.43 502.143 1042.04 506.459 1045.64 509.515 C 1075.5 534.866 1104.67 560.962 1134.67 586.152 C 1082.82 587.668 1062.15 553.145 1039.96 512.421 C 1037.62 508.129 1035.54 504.061 1033.6 499.548 z"/>
<path transform="translate(0,0)" fill="rgb(234,227,217)" d="M 1044.61 491.301 C 1057.55 490.38 1079.08 491.508 1093 491.718 L 1175.5 492.34 C 1171.28 497.657 1169.27 499.325 1163.64 503.068 C 1118.08 528.207 1088 507.05 1044.61 491.301 z"/>
<path transform="translate(0,0)" fill="rgb(234,227,217)" d="M 1011.81 500.903 C 1012.01 503.384 1010.66 506.258 1009.5 508.447 C 986.521 551.763 971.661 583.945 917.557 587.147 C 917.545 586.984 917.501 586.82 917.52 586.658 C 917.995 582.548 1003.05 509.249 1011.81 500.903 z"/>
<path transform="translate(0,0)" fill="rgb(234,227,217)" d="M 1007.06 497.068 L 1007.85 497.209 L 1007.94 498.296 C 976.702 520.707 942.27 556.149 912.653 581.743 C 911.618 581.643 911.925 581.533 910.829 580.562 C 910.498 572.698 912.616 564.219 915.938 557.14 C 932.838 521.128 972.618 509.893 1007.06 497.068 z"/>
<path transform="translate(0,0)" fill="rgb(234,227,217)" d="M 918.231 465.348 C 948.346 462.239 978.499 476.117 1008.09 485.65 C 993.156 485.991 977.728 485.91 962.75 486.022 C 933.314 486.4 903.874 486.407 874.437 486.043 C 887.578 471.213 899.435 467.95 918.231 465.348 z"/>
<path transform="translate(0,0)" fill="rgb(234,227,217)" d="M 1139.55 390.62 C 1143.1 397.883 1136.41 416.255 1132.61 423.418 C 1114.3 457.898 1077.5 467.47 1042.91 478.328 C 1043.22 476.1 1056.24 466.73 1058.86 464.575 C 1083.77 444.095 1120.77 416.467 1139.55 390.62 z"/>
<path transform="translate(0,0)" fill="rgb(234,227,217)" d="M 1115.28 464.39 C 1136.02 461.973 1159.73 471.74 1174.01 486.53 C 1150.26 486.273 1126.5 486.136 1102.75 486.117 C 1082.26 486.15 1061.77 485.738 1041.29 484.881 C 1068.15 478.008 1086.97 467.569 1115.28 464.39 z"/>
<path transform="translate(0,0)" fill="rgb(234,227,217)" d="M 1040.28 496.686 C 1044.09 497.23 1049.96 499.806 1053.73 501.074 C 1091.41 513.748 1134.73 535.145 1138.49 580.556 C 1129.88 576.365 1101.33 549.515 1091.81 541.264 C 1075.23 526.911 1056.46 511.383 1040.28 496.686 z"/>
<path transform="translate(0,0)" fill="rgb(234,227,217)" d="M 1093.79 349.415 C 1095.13 349.483 1096.47 349.563 1097.8 349.657 C 1116.12 350.955 1125.2 362.6 1136.56 375.687 L 1125.29 371.795 C 1109.43 368.889 1102.52 367.888 1086.47 371.35 C 1084.57 362.951 1083.24 358.581 1080.29 350.489 L 1093.79 349.415 z"/>
<path transform="translate(0,0)" fill="rgb(234,227,217)" d="M 992.617 550.739 C 993.575 556.555 991.908 576.482 992.099 584.397 C 987.215 589.476 976.974 601.072 970.005 600.807 C 967.584 592.549 967.147 587.136 967.17 578.812 C 977.265 568.556 983.547 562.09 992.617 550.739 z"/>
<path transform="translate(0,0)" fill="rgb(234,227,217)" d="M 952.333 349.363 C 957.611 348.907 961.965 349.614 967.185 350.236 C 963.767 357.702 962.735 363.015 961.442 370.881 C 949.005 367.764 941.476 367.285 928.984 369.163 C 924.218 369.851 917.933 371.858 913.174 373.217 C 925.295 360.386 934.163 350.937 952.333 349.363 z"/>
<path transform="translate(0,0)" fill="rgb(234,227,217)" d="M 1055.55 590.623 C 1063.51 596.896 1066.03 599.78 1075 604.988 C 1069.62 617.047 1061.9 624.218 1051.04 631.048 C 1044.83 633.801 1041.19 634.752 1034.7 636.513 C 1047.7 621.257 1051.13 609.676 1055.55 590.623 z"/>
<path transform="translate(0,0)" fill="rgb(234,227,217)" d="M 1054.77 550.497 C 1055.91 551.107 1077.87 575.293 1081.26 578.621 C 1081.37 586.295 1080.52 590.46 1078.44 597.636 C 1077.23 598.742 1077.73 598.259 1075.64 598.606 C 1068.77 595.882 1061.57 588.361 1056.22 583.155 C 1056.39 571.969 1056.4 561.586 1054.77 550.497 z"/>
<path transform="translate(0,0)" fill="rgb(234,227,217)" d="M 991.782 592.703 C 993.7 594.343 994.752 600.49 995.631 603.311 C 999.903 617.02 1005.65 626.644 1015.17 637.336 C 1009.55 636.105 1005.66 635.014 1000.19 633.284 C 987.048 626.966 980.837 619.337 973.627 607.442 C 980.57 603.159 986.009 598.379 991.782 592.703 z"/>
<path transform="translate(0,0)" fill="rgb(234,227,217)" d="M 960.651 581.942 C 961.353 582.573 964.47 601.056 965.463 604.581 C 951.362 606.204 940.34 607.701 926.878 601.896 L 916.214 593.219 C 934.014 592.064 944.835 590.492 960.651 581.942 z"/>
<path transform="translate(0,0)" fill="rgb(234,227,217)" d="M 1087.43 581.145 C 1104.29 590.184 1114.49 592.131 1133.16 592.184 C 1130.1 594.938 1125.95 597.803 1122.57 600.283 C 1108.56 607.37 1097.62 606.157 1082.88 602.201 C 1085.74 594.266 1086.22 589.451 1087.43 581.145 z"/>
<path transform="translate(0,0)" fill="rgb(234,227,217)" d="M 966.841 380.341 C 990.733 390.054 993.983 414.465 999.911 436.123 C 990.338 427.506 973.139 408.332 968.613 396.282 C 967.328 392.861 967.003 384.364 966.841 380.341 z"/>
<path transform="translate(0,0)" fill="rgb(234,227,217)" d="M 1072.34 351.761 L 1074.45 353.006 C 1078.94 359.828 1079.58 365.62 1080.9 373.519 C 1071.95 378.695 1067 381.715 1059.77 389.51 C 1058.48 391.233 1057.44 393.157 1055.46 393.691 C 1056.6 382.794 1055.55 375.015 1054.15 364.238 C 1059.67 358.84 1065.67 355.403 1072.34 351.761 z"/>
<path transform="translate(0,0)" fill="rgb(234,227,217)" d="M 1079.2 380.862 L 1080.32 381.727 C 1084.38 400.497 1060.63 422.272 1049.54 435.385 L 1048.78 435.649 L 1048.02 434.588 C 1055.65 407.88 1055.29 397.435 1079.2 380.862 z"/>
<path transform="translate(0,0)" fill="rgb(234,227,217)" d="M 972.863 351.421 C 982.262 355.932 985.917 358.438 993.202 365.291 C 991.405 375.009 992.763 384.99 991.313 392.499 L 990.241 392.087 C 981.959 382.321 976.945 379.604 966.3 372.581 C 967.734 364.158 969.322 359.048 972.863 351.421 z"/>
<path transform="translate(0,0)" fill="rgb(234,227,217)" d="M 1098.17 375.314 C 1112.23 374.429 1120.61 375.612 1133.47 381.123 C 1123.87 383.47 1116.91 385.257 1107.63 388.531 C 1097.81 392.643 1091.07 396.39 1082.4 402.4 C 1085.33 393.023 1085.86 387.2 1086.74 377.611 C 1090.14 376.739 1094.64 375.997 1098.17 375.314 z"/>
<path transform="translate(0,0)" fill="rgb(234,227,217)" d="M 935.496 374.339 C 946.17 373.615 950.764 374.483 960.804 376.948 C 961.018 384.911 962.413 392.107 963.729 399.944 L 952.878 392.851 C 939.695 385.42 929.573 382.35 915.022 379.036 C 922.807 376.209 927.509 375.285 935.496 374.339 z"/>
<path transform="translate(0,0)" fill="rgb(234,227,217)" d="M 907.167 518.802 C 921.468 520.45 927.721 521.272 941.909 519.571 C 934.882 523.924 931.132 527.41 925.423 533.064 L 919.508 539.735 C 910.67 538.138 904.396 536.764 896.001 533.715 C 899.688 526.752 901.916 524.292 907.167 518.802 z"/>
<path transform="translate(0,0)" fill="rgb(234,227,217)" d="M 1146.94 390.739 C 1155.08 400.436 1161.15 424.218 1152.59 434.779 C 1148.88 436.447 1149.15 435.631 1144.23 434.444 C 1141.99 433.627 1136.79 432.76 1134.24 432.272 C 1143.68 417.185 1145.47 407.735 1146.94 390.739 z"/>
<path transform="translate(0,0)" fill="rgb(234,227,217)" d="M 900.751 389.906 C 901.965 391.787 902.448 401.769 902.93 404.941 C 904.589 415.859 907.406 423.121 912.563 432.801 L 903.86 434.202 C 903.37 434.326 902.879 434.446 902.386 434.562 C 900.63 434.965 897.51 436.067 896.285 434.582 C 886.752 423.031 892.678 400.419 900.751 389.906 z"/>
<path transform="translate(0,0)" fill="rgb(234,227,217)" d="M 1011.09 323.405 C 1011.84 325.526 1009.49 326.684 1007.49 329.607 C 1001.71 338.038 997.809 348.462 994.462 358 C 991.742 355.994 988.322 353.914 985.435 352.065 L 976.312 346.649 C 976.691 346.112 977.077 345.581 977.472 345.056 C 987.121 332.22 995.222 325.651 1011.09 323.405 z"/>
<path transform="translate(0,0)" fill="rgb(234,227,217)" d="M 1034.49 322.461 C 1051.86 325.124 1060.88 333.336 1071.35 346.281 L 1064.25 349.721 C 1061.1 351.446 1055.91 355.24 1052.78 357.386 C 1047.56 342.468 1044.14 334.808 1034.49 322.461 z"/>
<path transform="translate(0,0)" fill="rgb(234,227,217)" d="M 1129.03 519.608 C 1142.81 517.421 1144.11 522.325 1151.28 532.598 C 1142.94 535.835 1136.37 537.008 1127.63 538.534 C 1120.1 530.111 1115.77 525.952 1106.48 519.675 C 1114.9 520.119 1120.67 520.582 1129.03 519.608 z"/>
<path transform="translate(0,0)" fill="rgb(234,227,217)" d="M 1150.09 539.108 L 1151.73 538.916 C 1159.54 545.117 1150.6 576.267 1144.3 576.952 L 1143.81 573.917 C 1141.79 562.757 1136.84 553.421 1131.45 543.629 C 1138.54 542.392 1143.18 541.101 1150.09 539.108 z"/>
<path transform="translate(0,0)" fill="rgb(234,227,217)" d="M 1130.69 437.624 C 1138.29 438.288 1143.54 440.056 1150.78 442.217 C 1145.83 449.453 1140.24 458.688 1130.76 458.441 C 1122.3 457.801 1115.73 458.123 1107.38 459.158 C 1117.37 452.001 1122.3 446.566 1130.69 437.624 z"/>
<path transform="translate(0,0)" fill="rgb(234,227,217)" d="M 1155.69 445.448 C 1169.06 451.474 1174.04 467.332 1177.23 480.254 L 1169.48 474.11 C 1159.55 467.121 1152.68 464.511 1141.19 461.216 C 1147.58 456.171 1150.88 451.778 1155.69 445.448 z"/>
<path transform="translate(0,0)" fill="rgb(234,227,217)" d="M 894.22 539.262 C 902.782 542.134 906.933 543.225 915.867 545.015 C 910.036 555.016 908.162 559.959 905.206 571.057 L 904.266 580.32 C 892.751 563.763 893.313 558.537 894.22 539.262 z"/>
<path transform="translate(0,0)" fill="rgb(234,227,217)" d="M 890.352 445.531 C 893.525 445.788 901.986 457.616 905.072 461.187 C 893.937 464.347 889.726 466.119 880.092 472.34 L 870.847 480.707 C 874.088 461.908 876.107 457.541 890.352 445.531 z"/>
<path transform="translate(0,0)" fill="rgb(234,227,217)" d="M 908.774 439.291 C 915.871 438.119 917.387 439.731 922.153 444.56 C 927.887 450.37 931.649 454.1 938.522 458.471 C 935.709 458.633 932.131 458.575 929.25 458.604 C 923.682 458.794 918.051 459.445 912.5 460 C 905.129 453.792 902.174 449.816 897.482 441.739 L 908.774 439.291 z"/>
<path transform="translate(0,0)" fill="rgb(234,227,217)" d="M 1080.68 607.769 C 1093.02 611.162 1096.82 611.341 1109.43 610.898 C 1100.01 617.229 1092.57 621.014 1082.27 625.554 L 1059.4 633.717 C 1069.74 624.511 1073.69 619.449 1080.68 607.769 z"/>
<path transform="translate(0,0)" fill="rgb(234,227,217)" d="M 965.805 610.452 C 969.206 610.749 972.331 616.478 974.935 619.65 C 979.451 625.152 983.73 629.319 989.021 634.088 C 982.549 632.073 976.122 629.915 969.745 627.616 C 959.158 623.872 948.229 617.322 938.362 611.752 C 949.255 612.276 955.103 611.808 965.805 610.452 z"/>
<path transform="translate(0,0)" fill="rgb(234,227,217)" d="M 871.755 501.509 C 873.958 502.254 880.931 507.311 883.631 508.996 C 890.075 513.019 893.8 514.58 900.913 517.194 L 895.361 524.625 C 894.628 526.042 893.592 527.52 892.71 528.868 C 882.944 530.206 874.268 509.414 871.755 501.509 z"/>
<path transform="translate(0,0)" fill="rgb(234,227,217)" d="M 1173.91 503.023 L 1174.57 503.726 C 1174.32 511.289 1163.72 527.681 1155.7 528.458 L 1153.96 526.422 C 1151.66 522.618 1149.22 519.989 1146.31 516.631 C 1158.88 512.202 1163.2 510.981 1173.91 503.023 z"/>
<path transform="translate(0,0)" fill="rgb(234,227,217)" d="M 1162.37 415.752 C 1167.31 420.018 1173.91 447.251 1174.88 454.536 L 1173.94 455.678 C 1169.37 448.506 1164.9 444.752 1158.59 439.391 C 1161.1 430.504 1161.97 424.83 1162.37 415.752 z"/>
<path transform="translate(0,0)" fill="rgb(234,227,217)" d="M 885.461 414.69 C 887.013 424.669 887.059 428.855 889.718 438.953 C 883.136 443.53 879.876 447.124 874.72 452.961 L 874.292 453.482 L 873.423 453.107 C 875.032 441.19 880.051 425.417 885.461 414.69 z"/>
<path transform="translate(0,0)" fill="rgb(234,227,217)" d="M 1063 327.992 C 1072.97 330.055 1090.63 337.501 1098.35 344.002 C 1090.39 343.999 1085.85 343.722 1078 345.283 C 1073.19 338.802 1068.5 333.896 1063 327.992 z"/>
<path transform="translate(0,0)" fill="rgb(234,227,217)" d="M 981.56 328.949 L 982.955 329.039 C 983.062 330.603 972.253 342.219 970.04 344.91 C 964.495 344.014 959.342 344.016 953.752 343.88 L 951.261 343.651 C 953.478 339.226 976.134 330.913 981.56 328.949 z"/>
<path transform="translate(0,0)" fill="rgb(234,227,217)" d="M 875.319 523.5 C 877.002 524.495 886.746 534.341 889.33 536.645 C 888.295 543.221 888.161 546.589 888.009 553.152 L 886.65 552.718 C 881.56 543.814 878.36 533.259 875.319 523.5 z"/>
<path transform="translate(0,0)" fill="rgb(234,227,217)" d="M 1171.67 522.984 C 1171.07 529.456 1163.54 547.664 1160.02 553.264 C 1159.9 547.329 1159.03 541.438 1158.29 535.545 C 1162.89 532.121 1167.57 527.105 1171.67 522.984 z"/>
<path transform="translate(0,0)" fill="rgb(37,37,38)" d="M 1051.01 707.192 C 1070.23 707.072 1100.49 705.179 1118.42 708.143 C 1163.62 715.617 1166.28 767.622 1116.1 777.031 C 1125.38 793.259 1140.47 818.157 1151 833.018 L 1127.12 832.934 C 1124.11 831.031 1096.47 783.252 1092.99 777.384 C 1086.31 777.258 1078.77 777.524 1072.03 777.615 C 1072.29 795.8 1072.01 814.581 1071.97 832.811 L 1051 832.766 L 1051.01 707.192 z"/>
<path transform="translate(0,0)" fill="rgb(234,227,217)" d="M 1072.1 713.191 C 1085.3 713.104 1110.21 710.787 1120.32 719.364 C 1134.31 731.219 1132.16 750.894 1121.6 764.108 C 1108.61 774.288 1088.79 771.959 1072.38 771.88 C 1071.71 753.285 1072.15 731.994 1072.1 713.191 z"/>
<path transform="translate(0,0)" fill="rgb(37,37,38)" d="M 1250.7 707.179 C 1253.32 707.153 1254.85 707.36 1257.46 707.707 C 1260.4 712.264 1272 740.112 1274.74 746.485 C 1287.01 775.337 1299.44 804.119 1312.03 832.829 L 1287.95 832.949 C 1283.33 821.511 1278.4 810.203 1273.16 799.037 L 1254.06 799.126 C 1241.35 799.037 1228.42 799.21 1215.7 799.274 C 1210.32 809.154 1205.65 822.894 1199.54 832.138 C 1195.7 832.421 1196.54 832.904 1193.53 831.423 C 1195.38 825.282 1207.12 802.027 1210.73 794.177 L 1250.7 707.179 z"/>
<path transform="translate(0,0)" fill="rgb(234,227,217)" d="M 1245.56 734.793 C 1248.65 738.036 1267.55 784.998 1271 793.28 L 1245.45 793.252 C 1236.46 793.34 1227.3 793.211 1218.3 793.172 C 1226.96 777.062 1237.62 752.019 1245.56 734.793 z"/>
<path transform="translate(0,0)" fill="rgb(37,37,38)" d="M 794.647 706.841 C 795.873 706.855 800.009 706.864 800.256 707.342 C 813.707 733.377 846.23 810.678 856.184 832.785 L 832.369 832.898 L 817.567 799.072 L 797.605 799.052 L 759.843 799.107 C 754.56 809.644 749.308 822.317 743.813 832.247 C 741.015 832.656 740.658 832.669 737.945 831.893 C 737.226 827.334 752.659 798.755 755.894 791.811 L 794.647 706.841 z"/>
<path transform="translate(0,0)" fill="rgb(234,227,217)" d="M 789.5 735.667 C 792.709 738.322 812.052 785.99 815.03 793.331 L 787.75 793.3 L 762.255 793.255 C 770.481 778.352 781.905 751.88 789.5 735.667 z"/>
<path transform="translate(0,0)" fill="rgb(37,37,38)" d="M 920.955 707.157 C 921.116 726.842 920.623 746.588 920.782 766.259 C 920.924 783.87 917.982 806.753 931.657 820.224 C 947.809 836.135 981.612 827.873 989.943 806.951 C 991.075 804.109 992.274 801.428 992.857 798.381 C 997.234 786.625 990.775 712.188 996.226 706.482 C 1000.91 707.343 1000.69 708.691 1000.94 712.75 C 1000.72 741.005 1003.08 773.533 999.258 800.954 C 992.201 839.145 936.249 845.223 912.012 821.982 C 896.619 807.222 899.549 783.096 899.448 763.625 C 899.352 744.966 899.441 725.988 899.395 707.25 L 920.955 707.157 z"/>
</svg>