<svg version="1.1" xmlns="http://www.w3.org/2000/svg" style="display: block;" viewBox="0 0 2048 1149" width="1312" height="736" preserveAspectRatio="none">
<path transform="translate(0,0)" fill="rgb(233,232,229)" d="M 0 0 L 2048 0 L 2048 1149 L 0 1149 L 0 0 z"/>
<path transform="translate(0,0)" fill="rgb(0,0,0)" d="M 1024.85 322.17 C 1027.25 322.765 1029.63 323.436 1031.99 324.181 C 1060.77 333.516 1078.91 356.107 1092.17 382.048 C 1111.69 374.405 1124.62 371.546 1145.32 370.687 C 1146.03 427.09 1153.69 480.752 1111.14 524.521 C 1088.2 548.121 1058.26 560.405 1025.53 561.102 L 1024.69 561.109 C 992.838 561.367 962.195 548.941 939.521 526.573 C 895.232 482.031 903.035 429.118 903.218 370.745 C 925.85 370.95 936.749 373.651 957.412 382.406 C 958.857 379.486 960.354 376.592 961.901 373.724 C 977.222 345.59 994.597 331.023 1024.85 322.17 z"/>
<path transform="translate(0,0)" fill="rgb(233,232,229)" d="M 1024.39 339.897 C 1026.04 340.295 1027.67 340.762 1029.28 341.298 C 1051.82 348.948 1067.08 370.71 1077.27 390.99 C 1050.89 406.684 1036.55 429.7 1025.61 457.497 L 1024.66 457.694 C 1009.42 424.888 1003.39 412.566 972.322 390.553 C 972.719 389.706 973.122 388.863 973.533 388.024 C 985.177 364.249 998.82 348.582 1024.39 339.897 z"/>
<path transform="translate(0,0)" fill="rgb(0,0,0)" d="M 1021.02 373.249 C 1029.89 371.162 1038.8 376.521 1041.11 385.329 C 1043.42 394.137 1038.29 403.182 1029.55 405.716 C 1023.69 407.414 1017.37 405.801 1013.04 401.502 C 1008.71 397.204 1007.06 390.896 1008.72 385.026 C 1010.37 379.156 1015.09 374.648 1021.02 373.249 z"/>
<path transform="translate(0,0)" fill="rgb(233,232,229)" d="M 1081.88 408.025 C 1088.18 417.168 1086.07 451.732 1083.71 463.241 C 1077.33 494.358 1062.9 514.652 1036.75 532.094 L 1034.96 532.916 L 1033.96 531.594 C 1033.95 516.465 1033.45 501.165 1036.26 486.314 C 1042.2 454.835 1055.09 426.637 1081.88 408.025 z"/>
<path transform="translate(0,0)" fill="rgb(233,232,229)" d="M 967.021 408.412 C 982.253 417.477 995.253 434.348 1002.52 450.302 C 1011.58 470.222 1015.56 493.059 1015.13 514.871 C 1015.02 520.47 1015.78 526.898 1014.89 532.38 L 1013.5 532.683 C 968.79 503.11 956.331 459.835 967.021 408.412 z"/>
<path transform="translate(0,0)" fill="rgb(233,232,229)" d="M 920.585 389.176 C 933.372 390.875 940.07 393.338 951.748 398.547 C 947.686 414.638 946.014 431.24 946.787 447.819 C 948.408 484.845 962.383 511.868 989.308 536.452 L 989.686 537.379 C 979.422 536.526 957.579 520.738 949.986 512.705 C 915.683 476.416 919.729 434.955 920.585 389.176 z"/>
<path transform="translate(0,0)" fill="rgb(233,232,229)" d="M 1122.51 390.167 C 1123.77 389.999 1127.19 389.452 1127.78 390.983 C 1130.51 398.104 1128.71 406.698 1128.89 414.049 C 1129.44 435.144 1128.92 456.08 1121.44 476.098 C 1109.99 506.777 1092.41 522.493 1063.71 536.124 L 1062.87 535.892 C 1062.95 534.582 1073.83 523.138 1075.78 520.682 C 1079.41 516.061 1082.7 511.18 1085.63 506.08 C 1104.48 473.154 1107.6 434.476 1097.69 398.21 C 1106.32 394.108 1113.31 392.229 1122.51 390.167 z"/>
<path transform="translate(0,0)" fill="rgb(0,0,0)" d="M 1042.34 621.111 C 1069.11 620.886 1127.95 614.069 1133.82 649.562 C 1135.13 657.754 1133.16 666.131 1128.35 672.889 C 1120.53 683.79 1109.73 686.31 1097.53 688.428 C 1108.76 705.62 1123.01 725.34 1135 742.018 L 1115.85 741.53 C 1111.2 737.793 1082.34 695.857 1077.96 689.021 L 1059.78 688.897 L 1060.03 741.932 L 1042.76 741.825 C 1042.7 702.581 1043.57 660.077 1042.34 621.111 z"/>
<path transform="translate(0,0)" fill="rgb(233,232,229)" d="M 1059.93 624.952 C 1088.05 624.356 1121.1 621.095 1113.96 664.184 C 1113.21 668.725 1109.91 673.203 1107.07 676.73 C 1093.63 686.673 1076.08 685.051 1059.92 685.03 L 1059.93 624.952 z"/>
<path transform="translate(0,0)" fill="rgb(0,0,0)" d="M 1211.14 620.393 C 1215.52 623.159 1259.2 727.05 1265.51 741.495 L 1247.76 741.81 C 1242.38 729.384 1236.84 717.033 1231.12 704.759 L 1209.63 704.703 L 1176.58 704.656 C 1173.26 710.962 1161.52 739.637 1157.93 741.772 L 1156.34 740.993 C 1155.94 737.854 1206.34 630.325 1211.14 620.393 z"/>
<path transform="translate(0,0)" fill="rgb(233,232,229)" d="M 1203.79 644.65 C 1207.53 647.754 1226.37 693.961 1228.93 701.178 L 1207.1 701.38 L 1177.9 701.048 C 1185.56 686.812 1197.07 659.781 1203.79 644.65 z"/>
<path transform="translate(0,0)" fill="rgb(0,0,0)" d="M 839.672 620.598 C 843.047 622.573 888.972 729.924 894.603 741.79 L 875.847 741.874 C 870.422 729.102 865.207 716.813 859.258 704.269 L 840.5 704.512 L 805.123 704.701 C 801.267 712.379 791.919 738.07 785.606 740.969 C 785.6 735.651 833.729 632.479 839.672 620.598 z"/>
<path transform="translate(0,0)" fill="rgb(233,232,229)" d="M 833.118 643.709 C 837.792 651.524 853.805 690.944 858.254 701.338 C 849.689 701.071 840.152 701.288 831.509 701.301 L 806.922 701.324 C 813.627 684.125 825.108 660.833 833.118 643.709 z"/>
<path transform="translate(0,0)" fill="rgb(0,0,0)" d="M 931.123 621.081 L 931.003 674.579 C 930.939 706.489 929.75 746.594 977.397 737.785 C 1008.09 732.11 1008.03 702.825 1007.92 677.395 C 1007.91 665.462 1007.76 653.53 1007.45 641.601 C 1007.33 636.373 1006.75 625.546 1009.61 621.252 L 1011.2 621.269 L 1011.77 623.824 C 1011.22 647.944 1017.99 715.774 999.312 730.72 C 968.382 755.473 911.065 745.413 913.801 694.071 C 914.89 673.655 913.922 642.888 914.019 621.123 L 931.123 621.081 z"/>
<path transform="translate(0,0)" fill="rgb(0,0,0)" d="M 976.588 786.202 C 987.756 785.891 998.554 789.354 1002.38 800.995 C 1004.1 806.195 1003.65 811.868 1001.13 816.731 C 997.567 823.669 992.93 825.789 985.969 828.132 C 951.686 830.04 947.745 793.135 976.588 786.202 z"/>
<path transform="translate(0,0)" fill="rgb(233,232,229)" d="M 975.002 793.559 C 982.569 790.617 991.086 794.385 993.999 801.963 C 996.912 809.541 993.111 818.043 985.522 820.927 C 977.974 823.796 969.527 820.02 966.63 812.483 C 963.733 804.946 967.476 796.484 975.002 793.559 z"/>
<path transform="translate(0,0)" fill="rgb(0,0,0)" d="M 1040.87 787.024 C 1047.44 786.878 1056 786.244 1062.37 786.903 C 1080.12 788.737 1081.88 802.36 1067.15 811.591 C 1070.05 816.245 1076.46 822.365 1074.64 827.66 L 1069.65 828.681 C 1062.63 822.686 1062.7 811.918 1052.58 811.119 C 1045.99 814.885 1051.08 821.559 1047.22 828.086 C 1044.3 828.849 1045.27 828.64 1041.85 827.201 C 1040.08 824.629 1040.84 792.622 1040.87 787.024 z"/>
<path transform="translate(0,0)" fill="rgb(233,232,229)" d="M 1049.14 793.188 C 1056.06 792.921 1063.52 791.372 1068.22 796.927 C 1069.06 800.113 1068.31 801.205 1067.04 804.162 C 1060.61 806.363 1055.73 805.925 1049.01 805.877 L 1049.14 793.188 z"/>
<path transform="translate(0,0)" fill="rgb(0,0,0)" d="M 1127.16 787.029 C 1130.3 786.96 1132.45 787.056 1135.55 787.264 C 1135.9 787.514 1136.81 788.144 1136.95 788.553 C 1139.21 795.139 1156.48 823.09 1150.09 828.032 C 1141.88 827.592 1145.49 821.415 1139.77 818.47 L 1122.24 818.029 C 1121.2 820.555 1120.2 823.096 1119.24 825.652 C 1116.01 828.178 1116.99 827.44 1112.26 827.65 L 1111.41 826.478 C 1112.64 818.81 1123.59 795.17 1127.16 787.029 z"/>
<path transform="translate(0,0)" fill="rgb(233,232,229)" d="M 1131.3 795.677 C 1133.38 798.924 1137.97 807.929 1137.21 811.663 L 1134.23 812.343 C 1129.77 812.241 1129.31 812.959 1126.16 810.874 C 1125.54 805.786 1128.87 800.828 1131.3 795.677 z"/>
<path transform="translate(0,0)" fill="rgb(0,0,0)" d="M 825.89 787.188 C 833.208 787.127 849.433 786.57 856.048 787.351 C 858.373 789.492 857.773 788.385 858.286 791.53 L 856.942 793.061 C 849.612 795.075 838.34 790.113 834.191 795.091 C 833.992 798.492 833.853 799.501 834.634 802.953 C 837.467 804.881 850.052 804.169 854.526 804.178 C 854.218 807.528 854.756 806.85 853.031 809.221 C 847.731 810.905 840.029 810.215 834.053 810.228 C 834.154 814.542 834.979 823.937 832.526 826.965 C 829.09 827.021 829.013 827.585 826.461 825.902 C 825.242 818.646 825.834 795.837 825.89 787.188 z"/>
<path transform="translate(0,0)" fill="rgb(0,0,0)" d="M 1191.15 786.867 C 1194.06 786.892 1195.61 787.089 1198.5 787.512 C 1199.68 790.577 1199.58 815.612 1199.65 821.303 C 1206.58 821.573 1214.01 819.956 1220.24 821.86 C 1222.73 824.154 1221.97 823.538 1222.33 827.825 L 1191.5 827.786 C 1191.14 814.15 1191.03 800.508 1191.15 786.867 z"/>
<path transform="translate(0,0)" fill="rgb(0,0,0)" d="M 894.877 786.903 C 897.881 786.879 899.808 786.56 902.449 787.929 C 903.575 794.813 903.057 813.602 903.028 821.42 C 909.06 821.522 919.99 819.402 924.763 822.32 C 925.851 822.986 925.852 826.025 926.069 827.738 L 895.03 827.837 L 894.877 786.903 z"/>
</svg>