<svg version="1.1" xmlns="http://www.w3.org/2000/svg" style="display: block;" viewBox="0 0 2048 1149" width="1312" height="736" preserveAspectRatio="none">
<path transform="translate(0,0)" fill="rgb(232,227,219)" d="M 0 0 L 2048 0 L 2048 1149 L 0 1149 L 0 0 z"/>
<path transform="translate(0,0)" fill="rgb(0,0,0)" d="M 942.142 313.328 C 971.316 314.629 982.19 317.987 1005.36 335.487 C 1023.28 312.593 1024.23 311.853 1043.13 335.195 C 1053.89 326.58 1065.16 319.729 1078.65 316.311 C 1085.43 314.593 1114.71 308.033 1115.14 319.634 C 1117.52 383.905 1095.21 430.903 1028.4 442.696 C 1027.6 460.94 1028.19 483.74 1028.15 502.341 C 1039.64 472.414 1058.78 448.541 1090.19 438.329 C 1096.07 436.425 1102.14 435.157 1108.3 434.548 C 1117.73 433.554 1153.57 433.025 1163.82 435.119 C 1165.39 435.437 1165.83 437.437 1166.26 438.823 L 1164.84 440.776 C 1157.74 444.192 1130.62 442.686 1120.39 442.744 C 1111.34 480.112 1092.61 504.076 1057.27 520.008 C 1046.05 524.449 1040.24 526.123 1028.26 527.53 C 1028.14 553.049 1028.7 578.992 1028.16 604.533 C 1028.06 608.963 1027.9 609.353 1025.27 611.696 C 1021.83 611.964 1022.98 612.39 1020.76 610.496 C 1019.14 606.598 1019.64 538.247 1019.56 527.495 C 1002.51 525.59 986.17 519.557 971.969 509.918 C 948.696 494.475 932.652 470.28 927.483 442.832 C 919.744 442.688 886.827 444.429 883.035 441.318 C 881.547 438.339 881.661 439.578 882.349 436.633 C 886.853 432.283 895.476 434.412 901.293 434.014 C 958.448 430.108 994.963 444.611 1019.64 500.158 C 1020.24 481.382 1019.85 461.93 1019.53 443.155 C 971.768 432.71 942.763 408.161 934.552 357.48 C 933.237 349.364 931.188 322.829 934.143 316.155 C 936.354 313.63 938.824 313.74 942.142 313.328 z"/>
<path transform="translate(0,0)" fill="rgb(232,227,219)" d="M 1100.09 354.251 C 1101.4 354.061 1104.15 353.933 1104.19 355.747 C 1104.4 365.894 1098.06 381.644 1093.39 390.427 C 1080.63 414.435 1060.55 425.62 1035.43 432.993 L 1032.49 432.957 L 1031.5 431.503 C 1031.27 421.921 1042.01 396.558 1048.36 388.079 C 1062.57 369.097 1076.4 358.48 1100.09 354.251 z"/>
<path transform="translate(0,0)" fill="rgb(232,227,219)" d="M 942.566 353.875 C 952.226 353.829 964.315 357.592 972.553 362.462 C 1000.25 378.831 1009.62 404.543 1017.45 433.589 C 1006.33 432.319 989.972 425.531 980.806 419.054 C 956.877 402.147 947.806 381.45 942.566 353.875 z"/>
<path transform="translate(0,0)" fill="rgb(232,227,219)" d="M 1107.8 443.375 L 1110.36 443.386 L 1111.07 445.339 C 1110.21 452.244 1104.38 464.684 1100.69 470.818 C 1083.88 498.727 1064.64 509.737 1034.37 517.742 L 1032.75 517.324 C 1031.5 508.296 1045.77 484.3 1051.69 476.709 C 1065.98 458.39 1084.53 446.29 1107.8 443.375 z"/>
<path transform="translate(0,0)" fill="rgb(232,227,219)" d="M 936.897 442.72 C 979.057 448.429 1005.38 477.928 1015.88 518.037 C 1002.84 515.964 990.362 511.227 979.233 504.122 C 956.077 489.399 942.768 469.176 936.897 442.72 z"/>
<path transform="translate(0,0)" fill="rgb(232,227,219)" d="M 1098.67 322.436 C 1101.13 322.188 1102.03 322.304 1104.53 322.521 C 1108.46 326.956 1106.35 338.189 1106 344.93 C 1086.26 345.035 1074.13 352.297 1058.84 363.024 C 1055.9 356.501 1052.16 349.658 1048.82 343.26 C 1065 327.849 1077.1 324.135 1098.67 322.436 z"/>
<path transform="translate(0,0)" fill="rgb(232,227,219)" d="M 941.929 322.306 C 965.627 322.382 981.88 326.701 999.584 343.81 C 996.995 348.332 994.396 353.449 991.916 358.084 C 991.341 359.351 990.36 361.025 989.666 362.289 C 986.712 362.354 974.877 353.411 969.69 351.161 C 958.487 346.3 953.631 345.595 942.001 344.563 C 941.833 337.145 941.809 329.725 941.929 322.306 z"/>
<path transform="translate(0,0)" fill="rgb(232,227,219)" d="M 1005.47 350.55 C 1019.58 362.951 1021.17 388.893 1019.74 406.301 L 1018.9 406.854 L 1017.55 403.743 C 1012.03 389.631 1005.65 380.641 995.964 369.161 C 998.915 362.629 1002.07 356.848 1005.47 350.55 z"/>
<path transform="translate(0,0)" fill="rgb(232,227,219)" d="M 1042.16 350.575 C 1045.67 353.373 1050.35 364.815 1052.27 369.264 C 1043.04 379.817 1037.97 386.526 1031.93 399.08 C 1030.94 401.917 1030.03 403.802 1028.74 406.467 C 1027.65 404.123 1028.32 396.629 1028.28 393.72 C 1028.01 376.07 1032.25 364.942 1042.16 350.575 z"/>
<path transform="translate(0,0)" fill="rgb(232,227,219)" d="M 1023.63 326.628 C 1028.15 330.351 1033.43 337.582 1037.13 342.358 C 1031.75 349.816 1028.72 355.235 1024.63 363.395 C 1021.92 360.241 1015.5 348.621 1010.97 342.683 C 1015.38 336.56 1018.68 332.325 1023.63 326.628 z"/>
<path transform="translate(0,0)" fill="rgb(0,0,0)" d="M 1053.81 658.276 C 1072.13 657.938 1104.79 654.376 1118.31 666.607 C 1123.28 671.022 1126.2 677.298 1126.37 683.942 C 1126.57 690.97 1123.96 697.787 1119.12 702.885 C 1110.15 712.26 1099.6 712.151 1087.79 712.487 C 1097.81 724.828 1109.74 739.161 1123.5 746.873 C 1127.78 749.273 1128.26 749.569 1128.99 753.036 C 1127.08 755.44 1126.52 754.892 1122.94 755.68 C 1104 750.868 1088.92 728.509 1077.02 713.22 C 1073.41 713.204 1068.87 713.513 1065.18 713.659 C 1065.09 720.397 1066.41 750.132 1064.01 753.837 C 1061.05 755.065 1056.1 755.071 1053.63 752.891 C 1052.45 742.793 1051.97 666.281 1053.81 658.276 z"/>
<path transform="translate(0,0)" fill="rgb(232,227,219)" d="M 1065.3 664.276 C 1076.18 664.112 1097.16 661.921 1105.53 668.519 C 1115.91 676.702 1114.7 691.229 1107.56 700.765 C 1096.9 708.525 1078.6 706.462 1065.31 706.248 C 1065.1 692.258 1065.1 678.266 1065.3 664.276 z"/>
<path transform="translate(0,0)" fill="rgb(0,0,0)" d="M 1208.95 658.93 C 1212.68 658.558 1216.85 657.971 1220.01 659.936 C 1225.25 668.684 1258.4 749.284 1257.65 754.107 L 1255.66 755.309 C 1244.26 755.031 1244.27 747.86 1240.66 739.43 C 1237.69 732.474 1234.82 725.431 1231.89 718.453 L 1221.39 720.98 C 1207.79 725.024 1195.78 732.949 1183.76 740.288 C 1181.64 744.555 1179.56 748.84 1177.51 753.143 C 1174.34 755.213 1172.25 755.919 1169.56 753.064 C 1170.25 750.171 1171.2 747.413 1172.39 744.687 C 1184.78 716.195 1195.89 687.132 1208.95 658.93 z"/>
<path transform="translate(0,0)" fill="rgb(232,227,219)" d="M 1211.63 670.741 C 1215.27 674.437 1226.46 705.549 1228.92 712.003 C 1216.64 714.889 1210.26 717.344 1199.11 723.085 L 1187.63 729.503 C 1192.78 713.888 1204.99 686.832 1211.63 670.741 z"/>
<path transform="translate(0,0)" fill="rgb(0,0,0)" d="M 830.021 658.264 C 833.7 658.187 838.01 657.502 840.792 659.657 C 854.717 684.849 867.753 725.976 878.025 753.337 C 879.175 756.4 867.023 755.474 865.206 751.282 C 860.488 740.392 856.918 729.309 851.95 718.458 L 841.459 721.056 C 830.417 724.502 813.501 732.91 805.06 741.264 C 804.214 742.101 799.291 751.229 797.597 753.804 C 794.179 755.615 795.194 755.73 791.985 755.339 L 791.266 753.923 C 791.094 745.757 824.42 671.615 830.021 658.264 z"/>
<path transform="translate(0,0)" fill="rgb(232,227,219)" d="M 833.009 670.49 C 837.15 677.531 846.436 703.718 849.522 712.152 C 836.996 714.092 830.004 717.485 818.951 723.241 L 807.498 730.377 C 815.126 710.897 824.666 689.874 833.009 670.49 z"/>
<path transform="translate(0,0)" fill="rgb(0,0,0)" d="M 924.542 658.263 C 928.627 658.133 930.366 657.952 934.372 658.899 C 945.314 671.409 913.269 760.69 974.059 748.57 C 1012.02 741.001 986.885 673.339 997.155 658.25 C 1002.87 658.311 1002.34 663.216 1002.32 667.75 C 1002.41 686.273 1002.79 704.645 1002.02 723.15 C 1000.07 769.644 922.543 767.18 923.507 721.88 C 923.737 711.063 921.942 664.443 924.542 658.263 z"/>
<path transform="translate(0,0)" fill="rgb(0,0,0)" d="M 987.921 799.164 C 1012.88 795.903 1025.04 818.414 1002.65 828.881 C 979.224 834.002 964.799 810.856 987.921 799.164 z"/>
<path transform="translate(0,0)" fill="rgb(232,227,219)" d="M 992.399 803.197 C 998.38 801.624 1004.52 805.137 1006.19 811.091 C 1007.86 817.045 1004.45 823.24 998.523 825.009 C 994.602 826.18 990.355 825.145 987.412 822.303 C 984.468 819.46 983.287 815.251 984.32 811.292 C 985.354 807.333 988.442 804.239 992.399 803.197 z"/>
<path transform="translate(0,0)" fill="rgb(0,0,0)" d="M 1033.05 799.384 C 1042.74 799.258 1064.67 796.186 1064.65 810.154 C 1062.94 813.893 1060.06 815.567 1056.74 818.043 C 1057.56 821.613 1060.5 823.395 1063.48 826.801 L 1063.33 828.693 L 1059.8 830.5 C 1054.36 827.794 1051.78 822.968 1047.84 817.911 C 1044.91 817.077 1043.92 817.344 1040.87 817.7 C 1038.32 821.943 1041.46 822.866 1039.42 827.963 C 1036.4 829.196 1037.7 829.074 1034.48 828.388 C 1031.7 824.931 1032.9 805.523 1033.05 799.384 z"/>
<path transform="translate(0,0)" fill="rgb(232,227,219)" d="M 1039.99 803.894 C 1044.78 803.719 1050.97 802.795 1054.9 805.073 C 1057.37 808.545 1056.66 807.578 1057.17 812.169 C 1053.01 812.773 1045.34 814.109 1041.81 812.313 C 1039.19 809.058 1040.08 809.101 1039.99 803.894 z"/>
<path transform="translate(0,0)" fill="rgb(0,0,0)" d="M 1093.41 799.15 C 1096.58 799.031 1098.57 799.161 1101.67 799.396 C 1105.4 801.511 1114.17 823.04 1115.69 827.862 C 1113.7 829.636 1114.58 829.113 1111.66 829.503 C 1107.72 827.642 1107.94 825.841 1104.87 823.057 C 1102.71 823.005 1096.77 822.795 1094.99 823.261 C 1090.97 824.312 1086.58 828.554 1082.23 827.34 C 1082.13 822.287 1090.99 804.368 1093.41 799.15 z"/>
<path transform="translate(0,0)" fill="rgb(232,227,219)" d="M 1097.46 805.561 C 1100.25 808.167 1103.13 814.469 1103.39 818.262 L 1101.23 819.268 C 1097.17 819.315 1094.39 820.345 1092.82 816.336 C 1094.08 812.573 1095.78 809.152 1097.46 805.561 z"/>
<path transform="translate(0,0)" fill="rgb(0,0,0)" d="M 889.327 799.658 C 894.528 799.498 916.355 798.152 918.99 801.793 C 914.859 805.805 900.105 801.934 896.78 805.002 C 896.537 807.729 896.298 808.275 897.297 810.716 C 900.482 812.256 906.422 811.751 910.25 811.708 L 913.184 812.128 L 913.542 813.613 L 912.64 814.653 C 906.929 816.362 902.639 816.066 896.749 816.057 C 896.698 819.967 897.564 826.93 893.798 828.621 L 891.614 827.58 C 887.933 822.053 889.203 806.992 889.327 799.658 z"/>
<path transform="translate(0,0)" fill="rgb(0,0,0)" d="M 935.123 798.791 L 940.005 799.481 C 943.579 803.442 941.944 818.209 941.876 824.466 C 946.766 824.51 955.602 823.025 959.965 824.982 C 961.127 825.503 961.067 827.136 961.413 828.786 C 952.853 829.008 943.7 828.883 935.088 828.922 C 934.934 818.879 934.945 808.834 935.123 798.791 z"/>
<path transform="translate(0,0)" fill="rgb(0,0,0)" d="M 1134.71 799.674 L 1139.58 799.94 C 1143.52 804.363 1141.8 817.257 1141.77 824.26 C 1147.47 824.334 1155.98 822.968 1161.16 824.905 C 1161.89 825.18 1162.39 827.392 1162.77 828.463 C 1154.48 829.221 1143.49 828.795 1134.95 828.688 L 1134.71 799.674 z"/>
</svg>