<svg version="1.1" xmlns="http://www.w3.org/2000/svg" style="display: block;" viewBox="0 0 2048 1149" width="1312" height="736" preserveAspectRatio="none">
<path transform="translate(0,0)" fill="rgb(233,227,220)" d="M 0 0 L 2048 0 L 2048 1149 L 0 1149 L 0 0 z"/>
<path transform="translate(0,0)" fill="rgb(0,0,0)" d="M 1022.5 259.7 C 1039.75 260.714 1067.07 305.434 1074.23 319.673 C 1092.61 309.097 1121.66 298.133 1142.64 297.108 C 1160.7 296.225 1153.76 362.076 1152.55 374.044 C 1163.77 373.949 1189.38 372.641 1199.68 377.953 C 1203.78 380.073 1199.98 397.92 1198.96 402.902 C 1192.49 434.663 1177.24 463.97 1154.94 487.489 C 1123.34 521.023 1076.79 538.917 1031.21 540.191 L 1031.13 593.273 C 1043.7 573.617 1062.5 559.937 1084.85 553.437 C 1091.71 551.443 1107.67 547.707 1113.87 551.106 C 1115.11 552.354 1116.74 554.37 1116.56 556.22 C 1112.09 604.245 1075.45 630.435 1031.31 634.579 C 1030.93 644.03 1034.28 650.815 1026.18 657.074 C 1013.16 656.608 1016.36 644.666 1016.37 634.588 C 1014 634.414 1011.64 634.182 1009.28 633.89 C 969.558 628.853 934.287 600.301 931.384 557.288 C 930.688 546.976 947.65 549.613 953.743 550.957 C 978.212 556.358 1003.44 571.047 1016.8 592.759 C 1016.9 575.249 1016.88 557.738 1016.72 540.228 C 976.647 538.79 937.134 525.731 906.03 500.022 C 872.309 471.796 850.979 431.488 846.608 387.73 C 846.191 383.174 845.98 380.886 848.707 377.62 C 858.629 372.855 883.961 374.052 895.839 374.206 C 892.841 356.598 890.583 317.081 897.015 301.403 C 903.387 285.872 964.219 314.945 973.803 320.579 C 983.518 298.355 1001.31 272.375 1022.5 259.7 z"/>
<path transform="translate(0,0)" fill="rgb(233,227,220)" d="M 1131.01 391.355 C 1133.08 392.954 1128.23 402.611 1127.25 405.056 C 1107.69 453.554 1063.26 468.743 1033.08 509.797 L 1032.24 509.087 C 1028.73 488.958 1039.61 456.845 1051.31 440.365 C 1071.84 411.452 1096.94 397.649 1131.01 391.355 z"/>
<path transform="translate(0,0)" fill="rgb(233,227,220)" d="M 915.183 390.745 C 977.641 403.51 1017.27 444.955 1016.12 510.315 C 1008.45 503.094 1001.11 490.092 992.678 483.618 C 954.367 454.193 932.563 437.951 915.183 390.745 z"/>
<path transform="translate(0,0)" fill="rgb(233,227,220)" d="M 1022.93 276.581 C 1037.81 282.71 1055.25 315.049 1061.73 328.863 C 1044.18 345.622 1034.64 357.974 1024.82 380.238 C 1022.41 379.616 1020.04 372.548 1018.38 369.454 C 1009.55 352.989 999.464 341.732 986.258 328.907 C 994.837 308.061 1006.56 291.869 1022.93 276.581 z"/>
<path transform="translate(0,0)" fill="rgb(233,227,220)" d="M 1137.23 312.395 C 1144.08 319.001 1138.63 365.875 1136.91 375.569 C 1112.67 379.39 1100.54 383.063 1079.52 395.139 C 1078.73 393.286 1080.12 388.077 1080.56 385.911 C 1084.23 367.771 1083.39 351.956 1079.13 333.997 C 1096.68 322.621 1116.51 315.246 1137.23 312.395 z"/>
<path transform="translate(0,0)" fill="rgb(233,227,220)" d="M 909.225 311.981 C 933.272 316.181 947.436 321.788 968.565 334.213 C 962.561 355.113 964.173 374.841 969.353 395.603 C 967.403 394.716 964.788 393.143 962.878 392.064 C 946.104 382.584 929.3 378.293 910.406 375.108 C 907.223 352.028 906.228 335.014 909.225 311.981 z"/>
<path transform="translate(0,0)" fill="rgb(233,227,220)" d="M 1124.74 466.41 C 1134.62 465.288 1142.34 467.165 1151.58 469.881 C 1130.91 497.206 1099.32 511.793 1067.34 520.901 C 1059.4 522.779 1049.45 524.109 1041.25 525.412 C 1060.57 493.215 1086.19 470.133 1124.74 466.41 z"/>
<path transform="translate(0,0)" fill="rgb(233,227,220)" d="M 1158.39 388.424 C 1167.59 387.807 1177.82 388.729 1187.1 389.329 C 1182.63 417.522 1176 433.823 1160.83 457.507 L 1148.09 453.826 C 1135.49 451.041 1126.52 451.753 1113.76 452.147 C 1131.06 433.825 1139.58 413.081 1148.77 390.29 C 1151.28 388.483 1154.88 388.744 1158.39 388.424 z"/>
<path transform="translate(0,0)" fill="rgb(233,227,220)" d="M 915.648 466.429 C 955.421 463.751 986.453 494.011 1006.13 525.03 C 1000.45 524.318 994.779 523.548 989.113 522.722 C 951.012 514.621 921.511 499.644 896.329 469.548 C 904.248 467.658 907.555 467.006 915.648 466.429 z"/>
<path transform="translate(0,0)" fill="rgb(233,227,220)" d="M 874.38 388.426 C 880.975 388.049 892.162 388.908 899.098 389.253 C 905.955 412.502 917.721 434.01 933.602 452.323 L 917.81 451.771 C 905.466 451.98 898.637 453.833 886.713 457.185 C 871.392 434.341 865.686 416.027 861.189 389.282 L 874.38 388.426 z"/>
<path transform="translate(0,0)" fill="rgb(233,227,220)" d="M 1065.87 344.971 C 1073.2 356.359 1066.01 397.981 1057.28 408.896 C 1048.95 419.3 1040.23 429.679 1032.89 441.066 C 1032.64 441.257 1032.01 441.168 1031.56 441.171 C 1027.73 402.487 1037.85 372.273 1065.87 344.971 z"/>
<path transform="translate(0,0)" fill="rgb(233,227,220)" d="M 980.423 344.397 C 1007.01 363.648 1022.32 409.944 1016.25 441.698 C 1010.01 431.18 1000.94 422.089 993.519 412.473 C 978.077 392.456 977.943 367.989 980.423 344.397 z"/>
<path transform="translate(0,0)" fill="rgb(233,227,220)" d="M 1097.67 565.205 C 1099.23 565.05 1098.43 564.983 1100.05 566.004 C 1099.96 571.256 1093.72 583.68 1090.79 587.868 C 1077.61 606.732 1061.61 614.474 1040.24 618.736 C 1038.58 618.88 1039.08 618.809 1037.38 618.27 C 1036.75 613.629 1043.24 601.379 1045.89 597.667 C 1058.89 579.487 1076.17 569.421 1097.67 565.205 z"/>
<path transform="translate(0,0)" fill="rgb(233,227,220)" d="M 947.095 564.836 C 979.865 570.354 1001.21 586.949 1011.17 619.292 C 978.77 615.138 955.866 596.886 947.095 564.836 z"/>
<path transform="translate(0,0)" fill="rgb(0,0,0)" d="M 1048.43 696.664 C 1056.64 696.408 1065.78 696.303 1073.96 696.548 C 1093.07 697.122 1112.79 694.997 1131.68 698.019 C 1164.51 703.271 1170.5 748.505 1140.78 762.364 C 1132.37 766.306 1125.13 766.619 1116 767.148 C 1129.59 780.914 1151.08 801.686 1163.05 815.887 L 1162.35 816.792 L 1157.25 817.01 L 1142.88 817.06 C 1126.12 800.761 1110.59 783.681 1094.25 766.993 L 1065.96 767.023 L 1065.81 816.944 L 1048.23 816.919 L 1048.43 696.664 z"/>
<path transform="translate(0,0)" fill="rgb(233,227,220)" d="M 1066.71 709.453 C 1086.9 709.477 1140.37 701.732 1142.2 727.923 C 1142.83 736.998 1140.94 742.23 1135.18 748.866 C 1123.29 757.222 1082.61 754.375 1066.03 754.294 C 1065.96 746.671 1065.37 715.442 1066.71 709.453 z"/>
<path transform="translate(0,0)" fill="rgb(0,0,0)" d="M 1259.96 696.166 L 1273.76 696.13 C 1293.13 734.759 1318.07 778.226 1338.9 816.876 L 1319.61 817.058 C 1301.72 787.224 1282.3 747.321 1265.42 715.964 C 1260.15 724.591 1256.19 731.904 1251.53 740.901 C 1245.51 751.76 1239.37 762.486 1234.21 773.783 L 1276.92 773.911 L 1281.96 785.978 L 1227 785.944 C 1221.42 796.346 1215.68 806.67 1209.81 816.913 L 1192.67 816.961 C 1215.46 778.955 1238.01 735.345 1259.96 696.166 z"/>
<path transform="translate(0,0)" fill="rgb(0,0,0)" d="M 772.872 696.345 L 787.345 696.326 L 852.362 817.139 L 832.914 817.006 C 814.429 785.351 796.655 748.323 778.923 715.675 C 774.11 723.866 769.382 732.106 764.738 740.394 C 758.923 751.572 752.891 762.636 746.644 773.579 C 760.239 774.058 775.327 773.841 789.036 773.909 L 794.813 786.035 L 740.067 785.86 C 734.302 796.284 728.425 806.645 722.437 816.942 L 706.603 816.967 C 713.031 803.561 723.115 786.39 730.428 773.123 L 772.872 696.345 z"/>
<path transform="translate(0,0)" fill="rgb(0,0,0)" d="M 996.415 696.384 L 1001.4 696.447 C 1004.52 699.504 1002.59 727.784 1002.9 733.873 C 1005.08 776.414 1004.88 818.064 948.87 819.093 C 876.959 820.414 886.68 769.216 886.222 717.292 C 886.139 710.483 886.292 703.405 886.352 696.572 L 903.249 696.603 C 903.402 717.059 899.736 773.548 909.386 788.914 C 914.569 797.165 923.565 802.055 932.898 804.067 C 945.911 806.872 961.622 805.722 972.946 798.216 C 1000.11 780.208 983.287 725.798 988.818 698.079 C 991.466 695.991 992.466 696.63 996.415 696.384 z"/>
<path transform="translate(0,0)" fill="rgb(0,0,0)" d="M 980.849 856.181 C 989.205 855.39 996.981 854.745 1003.25 861.129 C 1014.73 872.823 1008.23 884.922 994.965 890.076 C 966.872 894.471 955.276 866.851 980.849 856.181 z"/>
<path transform="translate(0,0)" fill="rgb(233,227,220)" d="M 986.456 860.139 C 1007.04 861.748 1008.92 880.138 991.286 886.311 C 987.633 886.264 983.688 886.232 980.416 884.5 C 976.94 882.631 974.377 879.424 973.32 875.622 C 970.828 866.442 979.015 861.852 986.456 860.139 z"/>
<path transform="translate(0,0)" fill="rgb(0,0,0)" d="M 1035.43 856.164 C 1044.87 855.933 1068.79 853.331 1070.31 866.614 C 1068.27 872.9 1065.68 874.406 1059.98 877.388 C 1063.22 881.877 1068.68 885.094 1069.04 889.703 L 1065.59 891.033 C 1054.14 884.791 1060.27 876.354 1043.36 877.03 C 1038.97 879.647 1043.47 885.883 1040.13 890.037 C 1036.92 890.055 1038.06 890.515 1035.88 888.551 C 1035.13 879.942 1035.49 865.22 1035.43 856.164 z"/>
<path transform="translate(0,0)" fill="rgb(233,227,220)" d="M 1041.18 860.825 C 1047.44 860.608 1059 858.809 1062.9 863.98 C 1063.98 867.509 1063.47 868.348 1062.25 871.694 C 1056.49 873.723 1047.93 872.854 1041.68 872.587 L 1041.18 860.825 z"/>
<path transform="translate(0,0)" fill="rgb(0,0,0)" d="M 1109.75 856.664 C 1112.14 856.554 1112.93 856.695 1115.32 857.038 C 1119.77 860.709 1132.33 885.017 1133.54 889.556 C 1126.51 892.746 1128.54 884.029 1120.25 882.581 L 1102.19 882.764 C 1100.13 887.014 1100.12 888.541 1096.56 889.995 L 1094.7 889.178 C 1094.01 883.578 1106.51 862.85 1109.75 856.664 z"/>
<path transform="translate(0,0)" fill="rgb(233,227,220)" d="M 1112.41 862.468 C 1115.38 864.465 1121.35 874.397 1119.51 878.124 L 1116.25 878.368 C 1111.5 878.346 1109.92 879.157 1106.51 877.021 C 1106.03 872.878 1110.16 866.755 1112.41 862.468 z"/>
<path transform="translate(0,0)" fill="rgb(0,0,0)" d="M 860.685 856.179 C 868.614 856.113 884.748 855.539 892.028 856.36 L 893.203 857.997 L 892.787 859.915 C 887.519 863.131 873.095 857.21 866.845 863.046 C 866.574 866.171 866.146 867.757 867.343 870.649 C 869.983 872.35 877.629 871.678 881.25 871.628 L 884.289 872.034 L 884.698 873.358 C 881.036 876.407 871.377 875.464 866.371 875.267 C 866.628 880.27 867.76 886.133 864.946 889.805 L 862.201 889.915 C 859.184 886.171 860.562 862.453 860.685 856.179 z"/>
<path transform="translate(0,0)" fill="rgb(0,0,0)" d="M 1158.93 856.045 C 1160.31 856.288 1161.91 856.709 1163.3 857.031 C 1165.93 860.88 1164.8 879.292 1164.86 885.587 C 1171.08 885.532 1179.04 885.273 1185.21 885.965 C 1187.44 886.214 1187.55 887.317 1188.63 889.193 C 1183.84 890.488 1164.84 890.082 1158.78 890.073 L 1158.93 856.045 z"/>
<path transform="translate(0,0)" fill="rgb(0,0,0)" d="M 916.829 855.919 L 920.508 856.768 C 923.948 861.515 922.388 878.859 922.288 885.847 C 928.164 885.72 938.108 885.174 943.855 886.399 C 945.273 886.701 945.436 887.957 946.241 889.603 C 939.037 890.435 924.385 890.026 916.602 890.019 C 916.497 878.652 916.573 867.284 916.829 855.919 z"/>
</svg>