<?xml version="1.0" encoding="UTF-8" standalone="no"?>
<!-- Created with Inkscape (http://www.inkscape.org/) -->

<svg
   width="213.43619"
   height="225.05396"
   viewBox="0 0 213.43619 225.05396"
   version="1.1"
   id="svg1"
   xml:space="preserve"
   inkscape:export-filename="luxury.svg"
   inkscape:export-xdpi="96"
   inkscape:export-ydpi="96"
   xmlns:inkscape="http://www.inkscape.org/namespaces/inkscape"
   xmlns:sodipodi="http://sodipodi.sourceforge.net/DTD/sodipodi-0.dtd"
   xmlns="http://www.w3.org/2000/svg"
   xmlns:svg="http://www.w3.org/2000/svg"><sodipodi:namedview
     id="namedview1"
     pagecolor="#ffffff"
     bordercolor="#000000"
     borderopacity="0.25"
     inkscape:showpageshadow="2"
     inkscape:pageopacity="0.0"
     inkscape:pagecheckerboard="0"
     inkscape:deskcolor="#d1d1d1"
     inkscape:document-units="px"
     showguides="false"
     inkscape:zoom="0.50610513"
     inkscape:cx="718.23022"
     inkscape:cy="425.80086"
     inkscape:window-width="1920"
     inkscape:window-height="991"
     inkscape:window-x="-9"
     inkscape:window-y="-9"
     inkscape:window-maximized="1"
     inkscape:current-layer="layer1"
     inkscape:export-bgcolor="#ffffff6c"><inkscape:page
       x="0"
       y="0"
       width="213.43619"
       height="225.05396"
       id="page2"
       margin="0"
       bleed="0" /></sodipodi:namedview><defs
     id="defs1" /><g
     inkscape:label="Capa 1"
     inkscape:groupmode="layer"
     id="layer1"
     transform="translate(-62.756312,-783.89823)"><g
       id="g8"
       transform="translate(-2315.7244,195.61153)"
       inkscape:export-filename="minimal.svg"
       inkscape:export-xdpi="96"
       inkscape:export-ydpi="96"><g
         id="g7"><path
           style="fill:#000000"
           d="m 2396.0842,804.27621 v -9 h 7.0834 c 5.2191,0 6.9752,0.32898 6.6724,1.25 -0.226,0.6875 -2.6221,1.475 -5.3246,1.75 -3.64,0.37039 -4.9999,0.95367 -5.2458,2.25 -0.277,1.45997 0.4259,1.75 4.2413,1.75 3.3175,0 4.5733,0.39611 4.5733,1.44251 0,0.98216 -1.3563,1.54063 -4.25,1.75 -4.1253,0.29848 -4.2591,0.41746 -4.5603,4.05749 -0.2031,2.45306 -0.8083,3.75 -1.75,3.75 -1.1462,0 -1.4397,-1.83439 -1.4397,-9 z m 30.6667,8.33334 c -0.3667,-0.36667 -0.6667,-4.41667 -0.6667,-9 0,-7.66667 0.16,-8.33334 2,-8.33334 1.8209,0 2,0.66667 2,7.44521 v 7.44521 l 4.6719,0.30479 c 2.611,0.17035 4.8533,0.85617 5.0833,1.55479 0.3005,0.91289 -1.319,1.25 -6.0052,1.25 -3.5291,0 -6.7166,-0.3 -7.0833,-0.66666 z m 32.2214,-0.83298 c -1.4366,-0.78076 -3.192,-2.82001 -3.901,-4.53166 -2.8344,-6.84281 4.5487,-14.04012 12.2275,-11.91989 4.9077,1.35509 7.24,4.2985 7.24,9.1372 0,7.35202 -8.3115,11.25739 -15.5665,7.31435 z m 10.5552,-3.72286 c 0.8562,-1.22238 1.5567,-3.21472 1.5567,-4.42742 0,-2.22439 -4.2231,-6.35008 -6.5,-6.35008 -2.2769,0 -6.5,4.12569 -6.5,6.35008 0,3.83281 2.7536,6.64992 6.5,6.64992 2.366,0 3.8558,-0.66978 4.9433,-2.2225 z m 22.187,2.9725 c -0.3316,-1.2375 -0.6091,-5.2875 -0.6166,-9 l -0.014,-6.75 h 6.5 c 9.5515,0 12.5336,3.6186 7.6564,9.29053 -1.3897,1.61606 -1.3749,2.06958 0.152,4.6543 2.12,3.58895 2.1132,4.05816 -0.058,4.0428 -0.9625,-0.007 -2.7853,-1.6104 -4.0508,-3.56354 -2.8691,-4.42813 -5.5667,-4.27823 -6.0125,0.3341 -0.3609,3.73366 -2.6505,4.37218 -3.5564,0.99181 z m 12.1839,-9.99708 c 0.2173,-1.14575 -0.5996,-2.10105 -2.3735,-2.77547 -3.8105,-1.44874 -6.4407,-0.3676 -6.4407,2.64744 0,2.31041 0.3061,2.46792 4.2414,2.18261 3.091,-0.22409 4.3313,-0.78136 4.5728,-2.05458 z m 19.2565,10.99708 c 0.039,-0.6875 1.5138,-4.625 3.2777,-8.75 4.0117,-9.38194 6.4122,-10.34979 9.6976,-3.90993 3.7159,7.28378 5.128,12.14146 3.878,13.34056 -0.8003,0.76779 -1.5452,0.43482 -2.6413,-1.18063 -2.1058,-3.10369 -9.7787,-3.28513 -10.5724,-0.25 -0.5641,2.15722 -3.7563,2.81503 -3.6396,0.75 z m 10.9293,-7.31574 c 0,-0.86115 -0.4983,-2.49695 -1.1075,-3.6351 -0.8882,-1.65978 -1.2811,-1.79521 -1.9846,-0.68425 -1.6605,2.6218 -1.0549,5.88509 1.0921,5.88509 1.1485,0 2,-0.66666 2,-1.56574 z m 24.648,3.31574 c -1.1844,-9.86047 -0.878,-12.75 1.352,-12.75 1.8209,0 2,0.66667 2,7.44521 v 7.44521 l 4.6719,0.30479 c 2.611,0.17035 4.8533,0.85617 5.0833,1.55479 0.3006,0.91326 -1.3245,1.25 -6.0325,1.25 h -6.4441 z m -108.146,-32.87549 c -5.7662,-1.36484 -11.1249,-5.46415 -13.4668,-10.30186 -1.8356,-3.7918 -2.0352,-6.13453 -2.0352,-23.88837 v -19.68428 h 4 4 v 19.32187 c 0,15.00651 0.3538,20.36003 1.5839,23.97027 2.126,6.23946 6.1087,8.70786 14.0498,8.70786 7.6214,0 12.1086,-2.36515 15.3663,-8.09945 2.3805,-4.19017 2.5083,-5.23715 2.674,-21.90055 0.2328,-23.41254 0.152,-22.22556 1.457,-21.41902 0.8055,0.49778 0.9776,5.76863 0.5978,18.30902 -0.5776,19.07536 -1.9878,26.12579 -5.9744,29.87099 -4.7915,4.5014 -14.9633,6.83884 -22.2524,5.11352 z m -34.5368,-4.62451 c -1.1707,-2.6125 -2.8156,-6.4375 -3.6554,-8.5 l -1.5269,-3.75 -12.1415,0.003 -12.1414,0.003 -3.8128,8.10092 c -2.097,4.45551 -4.0228,7.89088 -4.2795,7.63417 -0.4314,-0.43144 11.7117,-28.30075 19.9301,-45.74101 l 3.5342,-7.5 4.9884,10.54207 c 4.862,10.27514 19.1396,42.77097 19.1396,43.56174 0,0.21791 -1.7789,0.39619 -3.9532,0.39619 -3.7507,0 -4.0622,-0.24331 -6.0816,-4.75 z m -7.2782,-16.5 c -0.7369,-1.7875 -3.057,-7.4125 -5.1558,-12.5 -2.0988,-5.0875 -4.1372,-9.25 -4.5297,-9.25 -0.8345,0 -9.6214,18.63735 -10.5714,22.42241 l -0.6469,2.57759 h 11.1218 11.1219 z m 83.313,-5.84589 v -27.0959 l 13.75,0.36919 c 11.4427,0.30723 14.5426,0.73141 18.4734,2.52786 7.6854,3.51245 10.8753,11.33562 7.379,18.09677 -1.9991,3.86581 -4.7183,6.05569 -10.0172,8.06711 l -4.637,1.76015 8.0259,11.21162 c 4.4143,6.1664 8.0259,11.42481 8.0259,11.68536 0,0.26055 -1.7737,0.47373 -3.9415,0.47373 -3.6232,0 -4.2959,-0.46445 -8.328,-5.75 -2.4125,-3.1625 -6.2806,-8.5625 -8.5957,-12 -3.9783,-5.90705 -4.4267,-6.25 -8.172,-6.25 h -3.9628 v 12 12 h -4 -4 z m 25.4321,-0.31129 c 4.8658,-2.03304 6.5679,-5.09102 6.5679,-11.79955 0,-4.88658 -0.4177,-6.2205 -2.75,-8.78228 -3.1452,-3.45469 -11.1879,-5.50291 -17.5,-4.45672 l -3.75,0.62153 v 13.5557 13.5557 l 7.0628,-0.65641 c 3.8846,-0.36103 8.5508,-1.27812 10.3693,-2.03797 z m 25.5679,26.95204 c 0,-2.49455 24.2301,-53.73029 24.9873,-52.83679 0.8611,1.01616 11.3089,24.06633 18.3762,40.54193 l 5.4692,12.75 h -3.9621 -3.9621 l -3.9085,-8.5 -3.9084,-8.5 h -12.0542 -12.0541 l -3.927,8.5 c -3.3487,7.24824 -5.0563,9.96506 -5.0563,8.04486 z m 31.4344,-19.79486 c -1.8853,-6.05592 -9.7948,-22.77925 -10.4357,-22.06453 -0.7029,0.78385 -10.9987,23.20238 -10.9987,23.9491 0,0.20099 4.9804,0.36543 11.0674,0.36543 11.0182,0 11.0643,-0.01 10.367,-2.25 z M 2469.5842,692.3842 c -19.9234,-5.80943 -34.0111,-21.59637 -38.0339,-42.6214 -0.9056,-4.7334 -1.4661,-13.74516 -1.4661,-23.57455 v -15.91204 h 5.8059 c 3.2665,0 8.5394,0.92315 12.0559,2.11071 3.4376,1.16088 6.3439,1.94838 6.4586,1.75 3.0485,-5.2764 10.6736,-15.5214 13.037,-17.51663 3.7983,-3.20655 14.3704,-8.34596 17.1426,-8.33352 6.9086,0.031 19.9726,10.0932 26.197,20.17761 1.973,3.19651 3.8608,5.80603 4.1952,5.79893 0.3343,-0.007 3.4604,-0.90709 6.9469,-2 3.4865,-1.0929 8.549,-1.9871 11.25,-1.9871 h 4.9109 v 17.84004 c 0,25.76407 -3.1174,36.56229 -13.9897,48.45833 -13.5857,14.8649 -35.7271,21.28658 -54.5103,15.80962 z m -5.7954,-14.06039 c -5.9804,-6.45951 -10.0091,-13.75245 -12.2518,-22.17856 -1.5373,-5.77588 -1.8281,-21.36217 -0.5442,-29.16871 l 0.7894,-4.79967 -3.599,-1.53045 c -1.9794,-0.84174 -5.0615,-1.77827 -6.849,-2.08117 l -3.25,-0.55072 0.012,13.88084 c 0.018,20.69712 3.549,31.26643 13.7726,41.2213 4.6096,4.48843 14.7869,11.15954 17.0249,11.15954 0.2233,0 -2.0738,-2.67858 -5.1048,-5.9524 z m 52.4209,-4.90585 c 9.9333,-9.05854 14.8745,-23.01304 14.8745,-42.00736 0,-14.3589 0,-14.35345 -8.9676,-11.45585 -4.8099,1.55341 -5.1505,1.87022 -4.5704,4.25 0.3448,1.41431 0.8771,7.07146 1.1828,12.57146 0.8855,15.92557 -3.6363,30.52845 -12.6096,40.72269 -2.2193,2.52132 -4.0352,4.8661 -4.0352,5.21062 0,1.39858 8.6224,-4.27311 14.1255,-9.29156 z m -36.1255,0.3161 c 0,-17.30483 -5.4176,-32.07032 -15.3949,-41.95785 l -6.0545,-6 -0.7012,4.5 c -2.8465,18.26873 1.4189,32.42077 13.3369,44.25 3.7403,3.7125 7.2536,6.75 7.8072,6.75 0.5864,0 1.0065,-3.14801 1.0065,-7.54215 z m 16.244,2.51241 c 6.6574,-5.93361 10.9389,-13.00072 13.3103,-21.97026 1.9538,-7.38987 2.4321,-23.52059 0.783,-26.40376 -1.0017,-1.75128 -1.5057,-1.47094 -6.2924,3.5 -9.6789,10.05132 -15.0449,24.54401 -15.0449,40.63367 0,5.09855 0.3602,9.27009 0.8004,9.27009 0.4402,0 3.3399,-2.26338 6.4436,-5.02974 z m -2.3939,-44.84348 c 2.0075,-2.95527 5.9969,-7.05418 8.8654,-9.10869 l 5.2154,-3.73547 -2.9402,-4.63634 c -6.0688,-9.56942 -15.4475,-17.64628 -20.4907,-17.64628 -2.5559,0 -9.7371,3.96682 -13.3199,7.3578 -3.1095,2.94308 -10.8254,14.4722 -10.0381,14.99911 8.3295,5.57492 16.8954,15.93976 20.9801,25.38621 l 2.057,4.75688 3.0106,-6 c 1.6558,-3.3 4.653,-8.41794 6.6604,-11.37322 z m -14.2152,-8.19936 c -6.3789,-5.01765 -0.1363,-15.0346 7.4193,-11.90498 2.5753,1.06673 4.9458,4.6086 4.9458,7.38976 0,0.72495 -0.9326,2.50377 -2.0726,3.95295 -2.5494,3.24116 -6.6052,3.46272 -10.2925,0.56227 z"
           id="path6"
           sodipodi:nodetypes="scsssssssssssssscssssssssssssssssscsssssssssssssssssssssssssssscssscsssscccssssssssssscccssscssssssssscccsccsssscssssssccccccsssscccssssscccccccsssssssssscsscsssssscsssssscsscssssssscssssssscssssssssssssscssssscsssssss" /></g></g></g></svg>
