<?xml version="1.0" encoding="UTF-8" standalone="no"?>
<!-- Created with Inkscape (http://www.inkscape.org/) -->

<svg
   width="208.54425"
   height="241.29428"
   viewBox="0 0 208.54425 241.29428"
   version="1.1"
   id="svg1"
   xml:space="preserve"
   inkscape:export-filename="luxury.svg"
   inkscape:export-xdpi="96"
   inkscape:export-ydpi="96"
   xmlns:inkscape="http://www.inkscape.org/namespaces/inkscape"
   xmlns:sodipodi="http://sodipodi.sourceforge.net/DTD/sodipodi-0.dtd"
   xmlns="http://www.w3.org/2000/svg"
   xmlns:svg="http://www.w3.org/2000/svg"><sodipodi:namedview
     id="namedview1"
     pagecolor="#ffffff"
     bordercolor="#000000"
     borderopacity="0.25"
     inkscape:showpageshadow="2"
     inkscape:pageopacity="0.0"
     inkscape:pagecheckerboard="0"
     inkscape:deskcolor="#d1d1d1"
     inkscape:document-units="px"
     showguides="false"
     inkscape:zoom="0.50610513"
     inkscape:cx="718.23022"
     inkscape:cy="425.80086"
     inkscape:window-width="1920"
     inkscape:window-height="991"
     inkscape:window-x="-9"
     inkscape:window-y="-9"
     inkscape:window-maximized="1"
     inkscape:current-layer="layer1"
     inkscape:export-bgcolor="#ffffff6c"><inkscape:page
       x="0"
       y="0"
       width="208.54425"
       height="241.29428"
       id="page2"
       margin="0"
       bleed="0" /></sodipodi:namedview><defs
     id="defs1" /><g
     inkscape:label="Capa 1"
     inkscape:groupmode="layer"
     id="layer1"
     transform="translate(-518.26654,-411.28824)"><g
       id="g9"
       transform="translate(-2216.9307,205.4909)"><path
         style="fill:#000000"
         d="m 2797.7415,437.59161 c 0,-5.66667 0.4035,-9.5 1,-9.5 0.5834,0 1,3.33333 1,8 v 8 l 2.75,0.0136 c 1.5125,0.008 3.7625,0.28499 5,0.61663 4.2213,1.13125 2.2614,2.36972 -3.75,2.36972 h -6 z m 20.9231,6.57692 c -2.1641,-2.1641 -2.9231,-3.8718 -2.9231,-6.57692 0,-2.70513 0.759,-4.41283 2.9231,-6.57693 2.1641,-2.1641 3.8718,-2.92307 6.5769,-2.92307 2.7052,0 4.4129,0.75897 6.577,2.92307 2.1641,2.1641 2.923,3.8718 2.923,6.57693 0,2.70512 -0.7589,4.41282 -2.923,6.57692 -2.1641,2.1641 -3.8718,2.92308 -6.577,2.92308 -2.7051,0 -4.4128,-0.75898 -6.5769,-2.92308 z m 11.6224,-1.53147 c 4.2455,-4.24551 2.3742,-10.74527 -3.4626,-12.02726 -3.5325,-0.77586 -6.6185,0.94658 -8.0988,4.52021 -3.0026,7.24903 5.9841,13.08432 11.5614,7.50705 z m 14.094,3.76069 c -0.3517,-0.35171 -0.6395,-4.6702 -0.6395,-9.59664 v -8.95716 l 5.4845,0.45481 c 8.7548,0.72602 12.0692,5.4457 7.3511,10.46792 -2.0288,2.15947 -2.0601,2.41932 -0.5,4.14319 1.6637,1.83844 2.2356,4.18174 1.0204,4.18174 -0.3542,0 -2.0738,-1.65401 -3.8213,-3.67557 -3.5711,-4.13116 -6.5347,-4.09254 -6.5347,0.0852 0,2.53585 -1.2218,4.03519 -2.3605,2.89655 z m 10.8605,-11.80614 c 0,-2.81451 -0.2627,-3.01902 -4.25,-3.3075 l -4.25,-0.3075 v 3.615 3.61499 l 4.25,-0.3075 c 3.9873,-0.28848 4.25,-0.49298 4.25,-3.30749 z m 36.5,3 c 0,-5.225 0.4019,-9.5 0.8931,-9.5 1.5135,0 2.1069,2.86995 2.1069,10.19019 0,6.81505 0.069,7.00939 2.2802,6.45434 2.6855,-0.67401 6.7198,0.20978 6.7198,1.4721 0,0.48585 -2.7,0.88337 -6,0.88337 h -6 z m -115.5173,5.25 c -0.3343,-1.7875 -0.4672,-5.725 -0.2953,-8.75 l 0.3126,-5.5 4.7415,-0.30445 c 2.6079,-0.16744 5.5329,0.15637 6.5,0.71959 1.3632,0.79381 0.5782,1.03087 -3.4915,1.05445 l -5.25,0.0304 v 3.5 c 0,3.48148 0.024,3.5 4.5,3.5 2.475,0 4.5,0.45 4.5,1 0,0.55 -2.025,1 -4.5,1 -4.4762,0 -4.5,0.0185 -4.5,3.5 0,4.40609 -1.7081,4.57573 -2.5173,0.25 z m 90.5506,1.5088 c -0.05,-3.38612 6.0188,-16.2588 7.6655,-16.2588 1.5243,0 9.8991,16.73544 8.8832,17.75134 -0.3244,0.32443 -1.6296,-0.3869 -2.9004,-1.58073 -3.193,-2.99968 -9.2033,-2.95903 -11.738,0.0794 l -1.877,2.25 z m 10.9667,-5.10958 c 0,-1.74064 -2.2221,-7.14922 -2.9373,-7.14922 -0.9204,0 -3.0627,4.57947 -3.0627,6.54705 0,0.94772 1.0432,1.45295 3,1.45295 1.65,0 3,-0.38285 3,-0.85078 z m -72.293,-36.6252 c -6.226,-2.37866 -9.5758,-5.31644 -10.6318,-9.32432 -0.9655,-3.66432 -1.2824,-11.53233 -1.1458,-28.4497 l 0.071,-8.75 h 3.5 3.5 v 14.81849 c 0,22.25976 2.3063,28.25054 11.4004,29.61429 6.5206,0.97782 10.994,-0.72195 13.8074,-5.24639 2.1073,-3.38899 2.3326,-5.13856 2.7922,-21.68639 0.5586,-20.10679 2.2965,-24.73294 2.8175,-7.5 0.4863,16.08278 -0.591,26.36088 -3.169,30.23325 -4.1079,6.17027 -15.2557,9.22713 -22.9415,6.29077 z m -69.8037,-1.68805 c 1.1023,-2.80138 15.8021,-34.35695 19.1395,-41.08597 1.2957,-2.6125 2.8415,-4.75 3.4352,-4.75 0.9504,0 22.5727,45.33355 22.5363,47.25 -0.01,0.4125 -1.7473,0.75 -3.8654,0.75 -3.8069,0 -3.8866,-0.0803 -6.9429,-7 l -3.0918,-7 -11.3071,0.003 -11.3071,0.003 -3.5,6.69718 c -1.925,3.68344 -4.066,6.87091 -4.7579,7.08325 -0.9344,0.28677 -1.0215,-0.21478 -0.3388,-1.94991 z m 29.677,-15.48738 c -2.5596,-6.67035 -8.9987,-20.34859 -9.5792,-20.34859 -0.775,0 -10.0011,19.37767 -10.0011,21.00541 0,0.59384 4.0724,0.99459 10.107,0.99459 8.985,0 10.0367,-0.18333 9.4733,-1.65141 z m 82.4197,-5.77664 v -23.42804 l 5.7407,-0.71724 c 6.9711,-0.87099 19.5258,0.65687 24.3987,2.96923 4.2828,2.03228 6.0764,5.0536 6.2185,10.47501 0.1324,5.04978 -2.5551,8.93045 -8.0536,11.62909 l -4.0751,2 6.8577,9.5 c 3.7717,5.225 6.8702,9.8375 6.8854,10.25 0.015,0.4125 -1.6739,0.75 -3.7538,0.75 -3.6907,0 -3.9487,-0.25119 -10.75,-10.46896 l -6.9685,-10.46895 -4.25,-0.031 -4.25,-0.031 v 10.5 10.5 h -4 -4 z m 21.3021,-0.6389 c 9.2269,-2.56225 10.3582,-16.76424 1.5791,-19.82464 -1.7488,-0.60963 -6.0375,-1.10841 -9.5304,-1.10841 h -6.3508 v 10.33333 c 0,5.68333 0.3,10.63333 0.6667,11 1.0254,1.02538 9.3852,0.77997 13.6354,-0.40028 z m 28.6979,23.60359 c 0,-0.34651 3.8782,-8.82151 8.6182,-18.83333 4.74,-10.01182 9.6653,-20.56581 10.945,-23.45331 1.2797,-2.8875 2.7571,-5.25 3.283,-5.25 0.526,0 1.8721,1.55212 2.9913,3.44916 2.4446,4.14329 20.1625,42.57727 20.1625,43.73685 0,0.44769 -1.6875,0.81163 -3.75,0.80874 -3.6724,-0.005 -3.8155,-0.14985 -6.9198,-7 l -3.1698,-6.99475 h -11.5471 -11.5471 l -3.2831,6.67582 c -1.8057,3.6717 -3.8456,6.8592 -4.5331,7.08333 -0.6875,0.22413 -1.25,0.124 -1.25,-0.22251 z m 29.9469,-18.17634 c -0.552,-1.45184 -2.8678,-6.65201 -5.1462,-11.55594 l -4.1427,-8.91623 -5.329,11.19759 c -2.9309,6.15867 -5.329,11.35885 -5.329,11.55593 0,0.19709 4.7139,0.35835 10.4753,0.35835 h 10.4752 z m -103.8429,-52.84212 c -8.5344,-1.93765 -21.3994,-8.42989 -27.7936,-14.0259 -10.3444,-9.05302 -17.3648,-22.79889 -19.3169,-37.82175 -0.5124,-3.9438 -0.9456,-22.19925 -0.9626,-40.56767 l -0.031,-33.39714 11.75,0.54653 c 22.8168,1.0613 36.7656,8.75308 47.9815,26.45841 l 4.6816,7.39035 2.4188,-4.75943 c 8.1065,-15.95088 20.0769,-24.5823 38.5491,-27.79635 4.8846,-0.84988 11.9721,-1.54523 15.75,-1.54523 h 6.869 l -0.017,30.25 c -0.018,31.66246 -0.9082,45.17332 -3.5975,54.60559 -5.1801,18.16893 -19.0689,31.98928 -38.8948,38.70295 -9.9496,3.36927 -27.1959,4.27325 -37.3864,1.95964 z m -6.9685,-14.03258 c -8.8618,-9.4732 -15.4334,-19.76423 -23.7489,-37.19045 -10.6875,-22.39672 -10.6869,-22.3963 -10.0786,-7.79515 0.7585,18.20859 4.5092,27.22094 15.8614,38.11243 6.1564,5.90656 11.3233,9.19144 18.776,11.93707 5.6604,2.08533 5.6155,1.80493 -0.8099,-5.0639 z m 50.8447,2.15821 c 9.6694,-4.69106 18.5057,-13.45233 23.065,-22.86915 4.1655,-8.60346 6.3707,-20.12386 5.7951,-30.27466 l -0.3403,-6 -8.8544,17.5 c -10.3067,20.37023 -17.9503,32.37236 -25.3565,39.81521 -2.909,2.92337 -5.2891,5.5412 -5.2891,5.81739 0,0.83413 4.136,-0.66834 10.9802,-3.98879 z m -31.9973,-4.89381 c -0.02,-9.7823 -2.5597,-20.41688 -7.0563,-29.55079 -3.9356,-7.99439 -14.4099,-18.90996 -21.6598,-22.57228 -5.2094,-2.63162 -16.2374,-5.98967 -17.0387,-5.18837 -0.6716,0.67161 13.4319,29.2207 18.9406,38.34059 2.7607,4.57052 7.5646,11.06388 10.6754,14.4297 5.298,5.73236 13.719,12.71059 15.4059,12.76635 0.4125,0.0136 0.7423,-3.6877 0.7329,-8.2252 z m 14.7578,3.78573 c 12.0681,-9.07182 19.2518,-19.00285 30.2432,-41.8096 8.3496,-17.3252 8.8164,-18.72613 6.2401,-18.72613 -3.2582,0 -13.3379,3.86425 -18.1432,6.95558 -10.7597,6.92181 -19.0775,18.83843 -23.0649,33.04442 -2.4208,8.62431 -3.9031,25 -2.263,25 0.577,0 3.7214,-2.00892 6.9878,-4.46427 z m -14.741,-65.03573 c -3.5799,-23.36674 -23.0843,-40.5 -46.105,-40.5 h -6.8947 v 18.45468 18.45469 l 3.75,0.57375 c 9.5561,1.46208 15.2107,2.90399 20.75,5.29119 10.0345,4.32438 20.1262,13.37554 25.7393,23.08522 l 3.2607,5.64047 0.2861,-12 c 0.1573,-6.6 -0.1966,-15.15 -0.7864,-19 z m 20.7895,12.76482 c 9.5096,-9.13722 19.9666,-13.78995 35.4608,-15.77793 l 4.75,-0.60944 v -18.43873 -18.43872 h -6.8185 c -22.9785,0 -42.9827,17.12129 -46.1508,39.5 -0.5451,3.85 -1,12.58226 -1.0109,19.40503 l -0.02,12.40504 4.0898,-6.32767 c 2.2494,-3.48022 6.6141,-8.75313 9.6994,-11.71758 z"
         id="path8"
         sodipodi:nodetypes="sssccsscsssssssssssssssscsssssssssscccsssssssscssscssscsssssssssssscssssssssscccssssssssssscsscccsssssssssccsssscssssccccccccssscssssssssssscccssssscssscssssscsscssscsssssssssssssscssssssssssssssssssssscccssscsssscccssscsss" /></g></g></svg>
