<?xml version="1.0" encoding="UTF-8" standalone="no"?>
<!-- Created with Inkscape (http://www.inkscape.org/) -->

<svg
   width="280.56299"
   height="280.60364"
   viewBox="0 0 280.56299 280.60364"
   version="1.1"
   id="svg1"
   xml:space="preserve"
   inkscape:export-filename="luxury.svg"
   inkscape:export-xdpi="96"
   inkscape:export-ydpi="96"
   xmlns:inkscape="http://www.inkscape.org/namespaces/inkscape"
   xmlns:sodipodi="http://sodipodi.sourceforge.net/DTD/sodipodi-0.dtd"
   xmlns="http://www.w3.org/2000/svg"
   xmlns:svg="http://www.w3.org/2000/svg"><sodipodi:namedview
     id="namedview1"
     pagecolor="#ffffff"
     bordercolor="#000000"
     borderopacity="0.25"
     inkscape:showpageshadow="2"
     inkscape:pageopacity="0.0"
     inkscape:pagecheckerboard="0"
     inkscape:deskcolor="#d1d1d1"
     inkscape:document-units="px"
     showguides="false"
     inkscape:zoom="0.50610513"
     inkscape:cx="718.23022"
     inkscape:cy="425.80086"
     inkscape:window-width="1920"
     inkscape:window-height="991"
     inkscape:window-x="-9"
     inkscape:window-y="-9"
     inkscape:window-maximized="1"
     inkscape:current-layer="layer1"
     inkscape:export-bgcolor="#ffffff6c"><inkscape:page
       x="0"
       y="0"
       width="280.56299"
       height="280.60364"
       id="page2"
       margin="0"
       bleed="0" /></sodipodi:namedview><defs
     id="defs1" /><g
     inkscape:label="Capa 1"
     inkscape:groupmode="layer"
     id="layer1"
     transform="translate(-29.288628,-387.42212)"><g
       id="g6"
       transform="translate(-991.88878,-507.79964)"><path
         style="fill:#000000"
         d="m 1089.6661,1175.1055 c -0.3517,-0.3517 -0.6395,-3.6663 -0.6395,-7.3658 0,-5.2111 0.3564,-6.8631 1.5818,-7.3333 2.0419,-0.7836 9.7908,-0.785 11.8307,0 3.0252,1.1609 0.4273,2.3953 -5.041,2.3953 -5.1427,0 -5.4892,0.1502 -5.191,2.25 0.2396,1.6874 0.9978,2.2614 3.0319,2.2957 1.4919,0.025 3.0294,0.3627 3.4167,0.75 0.3874,0.3873 -0.9457,0.7043 -2.9624,0.7043 -3.3911,0 -3.6667,0.221 -3.6667,2.9409 0,2.9355 -1.1503,4.5754 -2.3605,3.3652 z m 24.3605,-6.8061 c 0,-4.125 0.4019,-7.5 0.893,-7.5 1.3956,0 2.107,2.7287 2.107,8.0818 v 4.9182 h 5 c 2.75,0 5,0.45 5,1 0,0.5641 -2.8333,1 -6.5,1 h -6.5 z m 28,6.7905 c -5.3285,-1.9593 -6.7363,-8.3107 -2.6855,-12.1162 3.3066,-3.1064 10.5317,-3.0315 13.5112,0.1401 6.1694,6.5671 -1.7399,15.3169 -10.8257,11.9761 z m 8.9275,-3.9254 c 2.566,-3.2622 2.5729,-3.8648 0.073,-6.3651 -3.7891,-3.7891 -12,-1.6304 -12,3.155 0,5.5173 8.3458,7.7635 11.9275,3.2101 z m 16.514,3.3429 c -0.2994,-0.7803 -0.4087,-4.2963 -0.2429,-7.8134 l 0.3014,-6.3946 4,0.073 c 5.9514,0.1088 9.3149,1.2124 10.5118,3.4487 0.8788,1.6422 0.6186,2.4162 -1.4604,4.3429 -2.516,2.3317 -2.5189,2.3545 -0.5406,4.1449 2.3407,2.1183 2.5598,3.4903 0.5573,3.4903 -0.7875,0 -2.3932,-1.35 -3.5681,-3 -2.758,-3.8733 -7,-4.2121 -7,-0.5591 0,2.8144 -1.7526,4.3673 -2.5585,2.2671 z m 11.8279,-7.958 c 0.9152,-2.6237 -0.5495,-3.75 -4.8764,-3.75 -4.0192,0 -4.393,0.2127 -4.393,2.5 0,2.2893 0.3723,2.5 4.4167,2.5 2.6341,0 4.5926,-0.5045 4.8527,-1.25 z m 14.7624,7.9714 c -0.018,-0.9781 1.3393,-4.4946 3.0151,-7.8143 2.1181,-4.1959 3.5473,-5.9394 4.6887,-5.7195 1.9424,0.374 8.2543,10.4738 8.2603,13.2174 0,1.7821 -0.1137,1.7983 -1.8246,0.25 -2.5621,-2.3187 -10.9946,-2.256 -12.7792,0.095 -1.2627,1.6633 -1.33,1.6619 -1.3603,-0.029 z m 9.9564,-4.7214 c 1.1771,0 0.047,-3.7262 -1.5265,-5.0318 -1.0058,-0.8348 -1.5966,-0.5846 -2.4689,1.0453 -1.448,2.7057 -0.5107,5.3992 1.5975,4.5902 0.8653,-0.332 1.9444,-0.6037 2.3979,-0.6037 z m 18.0118,-1.5834 c 0,-5.6201 0.3236,-7.4765 1.25,-7.1706 0.774,0.2555 1.3634,2.7626 1.5478,6.5833 l 0.2977,6.1707 h 4.9523 c 2.7237,0 4.9522,0.45 4.9522,1 0,0.5641 -2.8333,1 -6.5,1 h -6.5 z m -104.6597,-25.3283 c -5.0771,-1.2835 -9.6088,-4.3937 -12.5836,-8.6363 -2.3635,-3.3709 -2.9363,-5.582 -3.8951,-15.0369 -0.6601,-6.5091 -0.825,-15.0745 -0.3995,-20.75 l 0.7246,-9.6651 h 3.2738 3.2737 l 0.46,18.3556 c 0.3984,15.9002 0.7302,18.8765 2.4804,22.25 2.7403,5.2816 7.0347,7.5786 15.1564,8.1065 5.5673,0.3618 7.4087,0.05 11.1462,-1.8893 7.6957,-3.9927 8.4702,-6.405 8.8523,-27.5737 l 0.3294,-18.2509 2.4671,-0.6192 c 1.357,-0.3406 2.7837,-0.304 3.1706,0.081 1.2464,1.2413 1.3961,28.4687 0.1956,35.586 -1.381,8.1876 -4.9466,13.7274 -10.626,16.5092 -4.2345,2.0741 -18.3279,2.9732 -24.0259,1.5328 z m -96.1736,-0.9103 c 0.1833,-0.452 6.7869,-12.602 14.6747,-27 19.0596,-34.7906 16.0211,-34.7946 34.6586,0.046 7.7,14.394 14.15,26.5322 14.3334,26.9737 0.1833,0.4414 -1.6396,0.8027 -4.0509,0.8027 h -4.3842 l -11.8175,-22.5778 -11.8176,-22.5778 -6.8543,12.3278 c -3.7698,6.7803 -6.8665,12.6653 -6.8816,13.0778 -0.015,0.4125 4.0112,0.75 8.9471,0.75 8.96,0 8.9767,0 10.5256,3 l 1.5514,3 h -12.4767 -12.4768 l -3.635,6.5 c -3.3934,6.068 -3.8674,6.5 -7.1323,6.5 -1.9235,0 -3.3472,-0.3699 -3.1639,-0.822 z m 151.8333,-25.5794 v -26.4013 l 11.5579,-0.7222 c 12.737,-0.7958 24.2298,-0.01 29.0059,1.9871 3.8442,1.6062 7.0799,5.6165 8.5851,10.6403 2.4685,8.2391 -4.0627,16.9272 -13.8925,18.4805 l -4.2436,0.6705 10.1051,10.8732 10.105,10.8733 h -5.0021 -5.0021 l -10.5406,-11 -10.5407,-11 h -6.0687 -6.0687 v 11 11 h -4 -4 z m 35.8812,-2.7071 c 5.657,-1.972 7.844,-9.4286 4.1448,-14.1314 -2.6818,-3.4093 -8.774,-4.7601 -21.4688,-4.7601 h -10.5572 v 10 10 h 12.3508 c 6.7929,0 13.7816,-0.4988 15.5304,-1.1085 z m 29.2855,28.1879 c 0.1833,-0.5062 6.856,-12.6562 14.8281,-27 13.3117,-23.9509 14.7121,-26.0794 17.1584,-26.0794 2.4559,0 3.773,2.047 16.8893,26.25 7.8242,14.4375 14.4169,26.5875 14.6506,27 0.2338,0.4125 -1.5407,0.75 -3.9432,0.75 h -4.3682 l -7.6437,-14.25 c -4.204,-7.8375 -9.5715,-17.909 -11.9277,-22.381 l -4.284,-8.1311 -6.3832,11.6311 c -3.5107,6.397 -6.6023,12.1935 -6.8701,12.881 -0.3686,0.9461 1.8093,1.25 8.9595,1.25 9.1524,0 9.4826,0.079 10.607,2.547 0.6383,1.4009 1.1605,2.7509 1.1605,3 0,0.2491 -5.5862,0.453 -12.4139,0.453 h -12.4139 l -3.635,6.5 c -3.4048,6.0883 -3.8589,6.5 -7.1694,6.5 -1.944,0 -3.3844,-0.4143 -3.2011,-0.9206 z m -78.5952,-71.6509 c -0.8643,-0.8643 -1.5715,-3.0426 -1.5715,-4.8408 0,-3.1327 -0.222,-3.3192 -5.3062,-4.457 -7.8281,-1.7518 -16.6119,-6.2689 -21.5424,-11.0782 -5.0971,-4.9718 -9.2966,-13.5084 -9.9401,-20.2059 -0.4338,-4.5143 -0.3193,-4.7814 2.3349,-5.4476 3.7517,-0.9416 16.6066,2.8793 22.6273,6.7256 2.5704,1.6421 6.5079,4.9758 8.75,7.4081 l 4.0765,4.4226 v -11.2957 -11.2956 l -8.52,-1.14 c -10.1793,-1.3619 -23.3409,-5.726 -31.2412,-10.3588 -7.7325,-4.5344 -21.8813,-18.86739 -26.52,-26.86519 -4.4313,-7.6403 -8.5324,-19.9233 -9.3892,-28.1214 -0.5897,-5.6418 -0.5248,-5.8539 2.096,-6.8503 1.4876,-0.5656 6.5485,-1.0283 11.2465,-1.0283 7.5525,0 8.468,-0.1926 7.9041,-1.6623 -1.0351,-2.6974 -0.7422,-26.7708 0.361,-29.6725 0.8806,-2.3162 1.5732,-2.6638 5.2881,-2.6544 5.3717,0.014 11.3979,1.8304 21.4012,6.4522 4.3144,1.9934 7.9832,3.2079 8.1529,2.6989 1.9979,-5.9939 14.9363,-22.4142 19.5616,-24.826 2.6479,-1.3807 3.0964,-1.3123 6.6025,1.008 4.009,2.653 11.313,11.7596 15.7204,19.6002 l 2.6797,4.767 7.0782,-3.2667 c 7.8643,-3.6294 17.703,-6.4444 22.5236,-6.4444 5.0599,0 6.2775,4.2763 5.8794,20.6482 l -0.3248,13.3546 h 8.1849 c 10.9429,0 13.3151,0.9534 13.3151,5.3619 0,5.5116 -4.8003,20.506 -9.3158,29.0993 -5.889,11.2071 -18.2921,23.63529 -29.1842,29.24319 -10.3874,5.3481 -17.9691,7.7979 -28.75,9.2898 l -8.75,1.2109 v 11.5964 11.5963 l 4.9245,-5.5252 c 5.6477,-6.3365 14.6924,-11.3165 23.5154,-12.9476 9.8339,-1.8178 11.0425,-0.2813 7.9555,10.114 -3.9593,13.3325 -15.1425,22.7907 -30.6715,25.9406 -5.717,1.1596 -5.7739,1.2058 -5.5518,4.504 0.2121,3.1492 -1.453,6.515 -3.2231,6.515 -0.4434,0 -1.5133,-0.7072 -2.3775,-1.5715 z m -4.0978,-17.6785 c -1.4016,-4.7697 -7.7033,-12.9397 -12.1616,-15.7671 -4.7806,-3.0318 -14.0665,-6.5618 -14.9464,-5.6819 -1.1715,1.1714 4.0796,10.7195 8.0245,14.5912 4.0719,3.9963 14.0116,9.0329 17.9272,9.084 1.4171,0.019 1.6718,-0.4718 1.1563,-2.2262 z m 23.1487,-0.7388 c 7.6388,-3.3093 14.3654,-10.8399 16.8489,-18.8626 0.6893,-2.2267 0.5504,-2.3138 -2.6217,-1.6436 -5.2754,1.1146 -13.0089,5.2996 -17.0723,9.2388 -3.4402,3.3349 -7.7773,10.7656 -7.7773,13.3247 0,1.3625 4.9348,0.4068 10.6224,-2.0573 z m -29.0595,-44.9295 c -11.5819,-15.05149 -27.1004,-22.40109 -40.9375,-19.38799 l -3.8747,0.8437 6.5924,6.1668 c 4.2337,3.9605 9.5555,7.62399 14.8746,10.23969 7.915,3.8922 20.6824,7.8839 25.5908,8.001 2.1474,0.051 1.9908,-0.3577 -2.2456,-5.8632 z m 35.9371,2.6837 c 12.2813,-3.6051 25.7309,-11.65319 31.2416,-18.69439 l 2.2879,-2.9234 -5.4218,-0.6774 c -11.5098,-1.4381 -22.0587,2.2138 -31.2612,10.8223 -3.5858,3.35429 -7.8859,8.08459 -9.5558,10.51169 l -3.0362,4.413 4.3727,-0.6985 c 2.4051,-0.3842 7.5228,-1.6232 11.3728,-2.7533 z m -1.1288,-21.64879 c 14.833,-13.4288 20.2983,-20.1093 23.6345,-28.8895 2.2444,-5.9068 2.2138,-5.9275 -5.6555,-3.8322 -14.8343,3.9498 -27.3956,15.4982 -33.3848,30.6928 -2.6291,6.6703 -4.2867,15.32459 -3.4437,17.98059 0.6077,1.9147 0.7223,1.8912 2.635,-0.5404 1.0998,-1.3982 8.3963,-8.33319 16.2145,-15.41129 z m -27.3791,4.8834 c -3.0709,-14.1623 -12.5154,-26.4655 -25.4921,-33.2085 -6.9744,-3.624 -16.0792,-6.5456 -17.1286,-5.4962 -0.3036,0.3036 1.3821,4.2988 3.7461,8.8783 4.9383,9.5663 12.458,17.968 24.525,27.4015 4.4783,3.501 9.6533,8.2794 11.5,10.61869 l 3.3575,4.2533 0.3424,-3.4735 c 0.1883,-1.91049 -0.1943,-5.94859 -0.8503,-8.97359 z m -44.2421,-11.711 c 8.4185,-0.5509 9.4376,-1.0586 6.6946,-3.335 -2.3765,-1.9723 -9.0507,-13.818 -11.0768,-19.6594 l -1.8055,-5.2054 -5.1773,-0.6469 c -6.6682,-0.8331 -11.385,0.1724 -11.385,2.427 0,3.7533 3.2849,14.025 6.7018,20.9564 3.1349,6.3592 3.8875,7.2384 5.7048,6.6644 1.1514,-0.3637 5.8059,-0.9042 10.3434,-1.2011 z m 114.4849,-5.9798 c 2.0831,-3.8729 4.6355,-10.3643 5.6718,-14.4254 l 1.8844,-7.3838 -2.1456,-0.6504 c -2.8017,-0.8492 -10.5465,-0.9829 -13.3527,-0.2305 -1.4255,0.3822 -2.6146,1.8825 -3.3575,4.2363 -1.5432,4.8901 -7.4808,15.7759 -11.0981,20.347 l -2.9299,3.7025 6.7963,0.021 c 3.7381,0.012 8.1464,0.4423 9.7964,0.9569 1.65,0.5146 3.4382,0.8303 3.9737,0.7017 0.5355,-0.1287 2.678,-3.4027 4.7612,-7.2756 z m -69.1883,-15.0151 c -1.8189,-9.8394 -9.3899,-23.802 -14.3439,-26.4532 -1.9319,-1.034 -1.9729,-0.8048 -1.4813,8.2978 0.6149,11.3849 2.0017,14.888 10.0784,25.458 l 6.2002,8.1142 0.302,-4.8483 c 0.1662,-2.6665 -0.1738,-7.4224 -0.7554,-10.5685 z m 14.4226,6.7503 c 3.0665,-4.1005 6.2764,-9.7255 7.1332,-12.5 2.0026,-6.4851 2.8397,-16.3603 1.6506,-19.4708 -0.908,-2.3751 -1.0188,-2.3116 -5.2394,3 -7.3735,9.2797 -11.0136,19.9138 -11.0136,32.1756 0,7.0085 -0.2481,7.115 7.4692,-3.2048 z m -35.5916,-15.2944 c -0.5406,-1.7875 -0.8467,-7.9671 -0.6802,-13.7323 l 0.3026,-10.4824 -6.6659,-3.2596 c -3.6662,-1.7929 -9.3576,-3.8876 -12.6475,-4.6551 l -5.9816,-1.3954 -0.6025,3.0124 c -0.7708,3.8542 -0.6516,14.9729 0.2217,20.6766 l 0.6758,4.4142 6.0085,1.2237 c 3.3046,0.673 8.9296,2.5854 12.5,4.2498 3.5703,1.6643 6.7976,3.0648 7.1717,3.1121 0.3741,0.047 0.2379,-1.3765 -0.3026,-3.164 z m 68.8659,-3.7793 c 6.0358,-1.1875 6.2331,-1.3259 6.9123,-4.8466 0.9699,-5.0271 1.0158,-22.7697 0.061,-23.733 -1.233,-1.2445 -11.2778,1.2494 -18.5694,4.6103 l -6.6478,3.0642 v 13.7911 13.7911 l 6.0152,-2.7274 c 3.3083,-1.5001 8.8111,-3.2775 12.2283,-3.9497 z m -40.0073,-5.8869 c 1.7799,-3.2408 5.4508,-8.3156 8.1576,-11.2772 l 4.9214,-5.3848 -3.1576,-5.5211 c -4.4408,-7.7649 -10.3613,-15.5712 -12.4168,-16.372 -2.3492,-0.9151 -10.6896,8.047 -14.8937,16.0039 l -3.1529,5.9674 5.4057,6 c 2.9731,3.3 6.6419,8.3614 8.1529,11.2476 1.511,2.8862 2.9722,5.2433 3.2472,5.2381 0.275,-0.01 1.9563,-2.6611 3.7362,-5.9019 z"
         id="path5"
         sodipodi:nodetypes="csscssssssccssscssscsssssccsccsscsssssssssssssscsscssccsssssssscssscscssscccssscscscssccssssscccsssccccssssccscssccccccccccccccssscccsssssssscsscsssssscssscssssssscccsssssssscscssscssscssssscccssssssccsssscssssssssscsssssscssscssssssssscssssscscssscssssscscssssccssccsssscsssssssssscsscsscsscssscscccssssscssscsscs" /></g></g></svg>
