<?xml version="1.0" encoding="UTF-8" standalone="no"?>
<!-- Created with Inkscape (http://www.inkscape.org/) -->

<svg
   width="254.45694"
   height="228.91612"
   viewBox="0 0 254.45694 228.91612"
   version="1.1"
   id="svg1"
   xml:space="preserve"
   inkscape:export-filename="luxury.svg"
   inkscape:export-xdpi="96"
   inkscape:export-ydpi="96"
   xmlns:inkscape="http://www.inkscape.org/namespaces/inkscape"
   xmlns:sodipodi="http://sodipodi.sourceforge.net/DTD/sodipodi-0.dtd"
   xmlns="http://www.w3.org/2000/svg"
   xmlns:svg="http://www.w3.org/2000/svg"><sodipodi:namedview
     id="namedview1"
     pagecolor="#ffffff"
     bordercolor="#000000"
     borderopacity="0.25"
     inkscape:showpageshadow="2"
     inkscape:pageopacity="0.0"
     inkscape:pagecheckerboard="0"
     inkscape:deskcolor="#d1d1d1"
     inkscape:document-units="px"
     showguides="false"
     inkscape:zoom="0.50610513"
     inkscape:cx="718.23022"
     inkscape:cy="425.80086"
     inkscape:window-width="1920"
     inkscape:window-height="991"
     inkscape:window-x="-9"
     inkscape:window-y="-9"
     inkscape:window-maximized="1"
     inkscape:current-layer="layer1"
     inkscape:export-bgcolor="#ffffff6c"><inkscape:page
       x="0"
       y="0"
       width="254.45694"
       height="228.91612"
       id="page2"
       margin="0"
       bleed="0" /></sodipodi:namedview><defs
     id="defs1" /><g
     inkscape:label="Capa 1"
     inkscape:groupmode="layer"
     id="layer1"
     transform="translate(-497.13388,-57.625493)"><g
       id="g5"
       transform="translate(-563.12411,-84.962585)"><path
         style="fill:#000000"
         d="m 1142.1223,368.73301 c -4.1373,-2.13737 -5.8789,-3.78692 -7.6142,-7.21189 -2.1238,-4.19162 -2.25,-5.63465 -2.25,-25.72879 v -21.28811 h 4.5 4.5 l 0.024,19.75 c 0.026,21.66773 0.653,26.20004 4.1426,29.95275 6.9621,7.48692 21.1002,5.33599 26.0701,-3.96621 2.1062,-3.94218 2.2859,-5.68237 2.5865,-25.04552 0.2391,-15.39981 0.629,-20.70522 1.5,-20.40979 0.8556,0.2902 1.1566,6.10862 1.1025,21.30899 -0.069,19.36631 -0.2334,21.21728 -2.2274,25.07557 -3.657,7.07634 -10.1932,10.33421 -20.7332,10.33421 -4.858,0 -7.4223,-0.61257 -11.6007,-2.77121 z m -81.8643,0.65162 c 0,-0.61578 3.3296,-8.15328 7.399,-16.75 4.0693,-8.59673 9.5086,-20.35541 12.0871,-26.13041 2.5786,-5.775 4.9904,-10.81876 5.3595,-11.20836 1.7503,-1.84723 2.9622,0.46604 18.1848,34.71012 3.4224,7.69903 6.8467,15.46074 7.6096,17.24824 l 1.3869,3.25 h -5.3018 -5.3019 l -3.1205,-7.25 -3.1205,-7.25 -12.8582,-0.2774 -12.8583,-0.27741 -3.7246,7.52741 c -3.3533,6.77685 -5.7411,9.44192 -5.7411,6.40781 z m 30.0442,-25.13041 c -2.1017,-5.0875 -4.606,-11.05 -5.5652,-13.25 l -1.7439,-4 -5.8675,12.39145 c -3.2272,6.8153 -5.8675,12.7778 -5.8675,13.25 0,0.4722 5.1447,0.85855 11.4327,0.85855 h 11.4327 z m 108.9559,-1.86948 v -28.11947 l 15.75,0.40459 c 18.14,0.466 23.393,2.09364 27.3333,8.46926 2.8698,4.64333 2.3038,12.25191 -1.1897,15.99505 -2.6421,2.83088 -8.9502,6.37005 -11.3538,6.37005 -0.8469,0 -1.5398,0.24049 -1.5398,0.53443 0,0.29393 3.3481,5.91893 7.4403,12.5 l 7.4403,11.96557 h -4.7853 c -5.7345,0 -5.7735,-0.0388 -14.0738,-14 -3.4334,-5.775 -6.3443,-10.61397 -6.4686,-10.75327 -0.1244,-0.13929 -2.3247,0.0344 -4.8895,0.38593 l -4.6634,0.63919 v 11.86407 11.86408 h -4.5 -4.5 z m 28.3406,-0.50593 c 8.7524,-4.1737 8.8348,-19.31419 0.1251,-22.95337 -1.9818,-0.82801 -6.7541,-1.42122 -11.4336,-1.42122 h -8.0321 v 13 13 h 7.966 c 5.2895,0 9.1114,-0.54614 11.3746,-1.62541 z m 36.1855,26.49372 c 0.4049,-1.30257 2.1857,-5.29331 3.9575,-8.86831 1.7718,-3.575 7.1776,-15.1625 12.0128,-25.75 4.8353,-10.5875 9.1663,-19.25 9.6245,-19.25 0.4581,0 1.5429,1.08358 2.4107,2.40795 1.2773,1.94934 19.2295,42.83688 22.5424,51.34205 0.8412,2.15936 0.6644,2.25 -4.3872,2.25 h -5.2637 l -3.1205,-7.25 -3.1205,-7.25 -12.8853,-0.27759 -12.8853,-0.27759 -3.4558,7.24514 c -1.9006,3.98483 -4.0655,7.42549 -4.8107,7.64591 -1.0048,0.2972 -1.1647,-0.21123 -0.6189,-1.96756 z m 31.3758,-20.11831 c -3.7757,-9.58103 -8.0066,-19.23972 -8.762,-20.00265 -0.5627,-0.56831 -7.5128,13.62063 -11.9733,24.44382 -0.1833,0.44486 4.8726,0.80883 11.2354,0.80883 h 11.5688 z M 1172.3962,284.0301 c -13.71,-3.11596 -23.6854,-8.37606 -33.8452,-17.84673 -15.8073,-14.73506 -24.2952,-35.54984 -22.9089,-56.17915 0.713,-10.61096 2.8008,-18.31117 7.5916,-28 9.6069,-19.42861 25.6306,-32.2093 47.2303,-37.67141 6.9033,-1.74569 10.1742,-1.9964 20.2631,-1.55315 18.8519,0.82825 31.4794,6.07514 44.8456,18.63381 40.5865,38.13448 25.3613,104.41589 -27.8146,121.08813 -9.086,2.84872 -26.2825,3.59203 -35.3619,1.5285 z m 9.149,-2.77588 c -2.383,-2.60092 -5.4854,-8.60784 -7.2271,-13.99323 l -1.2107,-3.74323 -3.9066,3.24323 c -2.1487,1.78378 -3.9148,3.7032 -3.9247,4.26539 -0.065,3.71168 11.4576,12.47502 16.4063,12.47705 1.8584,7.6e-4 1.8537,-0.0763 -0.1372,-2.24921 z m 18.3929,-0.90236 c 3.7403,-2.26333 9.32,-8.36647 9.32,-10.19438 0,-1.28576 -4.8631,-5.36798 -7.0032,-5.87868 -0.6328,-0.15102 -1.9771,2.34443 -2.9872,5.54543 -1.0101,3.20101 -3.034,7.62946 -4.4975,9.84101 l -2.661,4.02099 2.3244,-0.70502 c 1.2785,-0.38777 3.7555,-1.57098 5.5045,-2.62935 z m -14.2236,-53.8032 c -0.6224,-3.44548 -0.6345,-3.43236 -4.1503,4.5 -5.2903,11.93568 -7.0362,21.57231 -5.5153,30.44164 1.2156,7.08859 3.5624,12.81331 7.5897,18.51392 l 2.1195,3 0.2903,-26.5 c 0.1597,-14.575 0.01,-28.055 -0.3339,-29.95556 z m -19.6211,49.87539 c -3.774,-4.47577 -4.6287,-5.01115 -7.1845,-4.5 -1.5955,0.31909 -4.3071,0.60006 -6.0258,0.62437 l -3.125,0.0442 4,2.13973 c 4.5181,2.41688 14.5809,6.71212 15.8095,6.74815 0.4452,0.0131 -1.1181,-2.26235 -3.4742,-5.05644 z m 25.4715,3.29363 c 5.4767,-6.05175 8.8102,-22.31945 6.7571,-32.97523 -1.1877,-6.16424 -8.167,-23.23823 -9.4991,-23.23823 -0.3106,0 -0.5648,13.05 -0.5648,29 0,15.95 0.3802,29 0.845,29 0.4647,0 1.5725,-0.80394 2.4618,-1.78654 z m 24.9432,-2.95818 c 4.2625,-1.96387 7.75,-3.94971 7.75,-4.41297 0,-0.46327 -2.25,-0.90981 -5,-0.99231 -2.75,-0.0825 -5.3931,-0.195 -5.8734,-0.25 -0.4804,-0.055 -2.7763,2.30741 -5.1022,5.24981 -4.9317,6.23916 -4.4842,6.26123 8.2256,0.40547 z m -55.6431,-8.83707 c -0.3338,-0.86998 -0.6138,-2.55748 -0.6223,-3.75 -0.031,-4.38117 -1.1765,-4.80086 -7.2643,-2.66118 -3.1187,1.09614 -7.5082,1.99297 -9.7544,1.99297 -4.6201,0 -4.5155,1.08415 0.3932,4.07731 4.2254,2.57653 18.2118,2.85297 17.2478,0.3409 z m 69.365,-0.40392 c 5.6809,-2.89817 5.6045,-3.67499 -0.4227,-4.29705 -2.9695,-0.30648 -7.3704,-1.42925 -9.7798,-2.49503 l -4.3807,-1.93779 -1.0324,4.44992 c -0.9466,4.07973 -0.8588,4.52017 1.0556,5.2944 3.728,1.50776 10.5475,1.03262 14.56,-1.01445 z m -59.7219,-4.82357 c 2.5259,-2.35595 2.75,-3.17384 2.75,-10.0397 v -7.4748 l -5.455,5.91189 c -4.9215,5.33387 -5.4593,6.36002 -5.5,10.49522 -0.025,2.52084 0.2391,4.8675 0.5864,5.21482 0.8546,0.85458 4.2764,-0.99025 7.6186,-4.10743 z m 41.9695,-0.58481 c 0.7419,-3.57052 0.5076,-4.05031 -4.9705,-10.18224 l -5.749,-6.43517 -0.3154,6.75575 -0.3154,6.75575 4.2271,3.77942 c 2.325,2.07867 4.7036,3.6206 5.2859,3.42649 0.5823,-0.1941 1.4091,-2.0391 1.8373,-4.1 z m -55.5833,-5.21911 c 6.5818,-3.33012 12.4315,-9.7979 18.4206,-20.36695 8.8559,-15.62817 8.5458,-15.56924 -11.1689,2.12186 -10.0262,8.99706 -19.8161,17.74864 -21.7555,19.44796 l -3.5261,3.08967 6.2232,-0.73376 c 3.5697,-0.4209 8.6039,-1.93832 11.8067,-3.55878 z m 79.3638,4.1925 c 0,-0.51796 -40.0285,-35.21051 -43.1437,-37.39247 -1.8972,-1.32885 -1.6498,-0.49967 1.6024,5.37085 11.7722,21.24959 21.2238,29.61833 35.5413,31.46911 3.025,0.39104 5.6125,0.76998 5.75,0.84209 0.1375,0.0721 0.25,-0.0582 0.25,-0.28958 z m -84.7501,-14.73757 c 7.2875,-6.68705 16.7825,-15.01205 21.1,-18.5 4.3175,-3.48795 7.5219,-6.34173 7.121,-6.34173 -1.7642,0 -14.9636,5.22295 -21.4334,8.48109 -8.3011,4.18037 -14.1812,9.20155 -17.5927,15.0229 -2.5752,4.39416 -4.8114,13.49601 -3.3158,13.49601 0.4789,0 6.8333,-5.47122 14.1209,-12.15827 z m 85.3397,5.81856 c -2.7766,-9.55098 -10.6149,-17.66004 -23.0896,-23.88712 -5.1664,-2.5789 -17.5317,-7.08021 -18.0345,-6.565 -0.1566,0.16051 6.4346,6.14183 14.6472,13.29183 22.1224,19.26011 27.2159,23.5047 27.6658,23.05477 0.2236,-0.22355 -0.3114,-2.87607 -1.1889,-5.89448 z m -99.0561,-7.35179 c 1.3901,-2.12158 1.2904,-2.26336 -2.2901,-3.25773 -6.4136,-1.78117 -6.5299,-1.68848 -6.0587,4.82711 0.2448,3.38427 1.208,7.07264 2.2705,8.69411 l 1.8452,2.81622 1.3899,-5.4308 c 0.7644,-2.98694 2.0438,-6.42895 2.8432,-7.64891 z m 105.8579,7.67126 c 1.5392,-3.84692 2.1843,-11.07066 1.0867,-12.16832 -0.404,-0.40393 -7.8955,1.0137 -9.2495,1.75028 -0.1492,0.0812 0.8589,2.57551 2.2403,5.54294 1.3813,2.96744 2.5159,6.18284 2.5213,7.14534 0.017,3.04411 1.7331,1.89861 3.4012,-2.27024 z m -116.3914,-10.85169 c 0,-1.7545 -1.0887,-3.79693 -3,-5.62807 -3.5642,-3.41468 -3.6118,-3.21001 -0.9238,3.97436 2.143,5.72756 3.9238,6.47809 3.9238,1.65371 z m 124.0622,-3.04983 1.9975,-5.25699 -3.0299,2.15747 c -2.5362,1.80595 -3.0298,2.83069 -3.0298,6.28937 0,5.12461 1.287,4.11398 4.0622,-3.18985 z m -106.5936,-2.4959 4.5455,-4.41767 -7.0717,-0.33233 c -6.0436,-0.28403 -7.3421,-0.0416 -8.9322,1.66766 -3.2488,3.49239 -2.844,4.72555 1.9898,6.06069 2.475,0.68363 4.5952,1.28714 4.7116,1.34114 0.1164,0.054 2.257,-1.88978 4.757,-4.31949 z m 94.7814,2.36508 c 4.4253,-1.22898 4.6247,-2.16359 1.1935,-5.59475 -1.7985,-1.79853 -3.2067,-2.38203 -4.75,-1.9682 -1.2064,0.32352 -4.1604,0.59437 -6.5643,0.60188 l -4.3707,0.0137 3.8707,3.91705 c 4.2574,4.30834 5.1263,4.55625 10.6208,3.03037 z m -109.1936,-5.19742 c 2.5207,-3.0216 2.4345,-3.38321 -1.1007,-4.61557 -1.6743,-0.58368 -4.3313,-1.9777 -5.9043,-3.09783 -3.7754,-2.68826 -4.2358,-2.57274 -2.8432,0.7134 1.6231,3.83036 5.6849,9.25 6.9324,9.25 0.5713,0 1.8834,-1.0125 2.9158,-2.25 z m 119.1343,-0.5 c 2.6911,-2.88529 4.8093,-6.44759 4.8093,-8.08808 0,-0.72826 -9.5719,3.65868 -11.8483,5.43026 -0.4523,0.35195 3.1729,5.33518 3.9112,5.3764 0.3096,0.0173 1.7171,-1.20608 3.1278,-2.71858 z m -87.1907,-8.01248 c 5.225,-1.92987 11.3,-4.0783 13.5,-4.77431 3.4225,-1.08277 -0.4034,-1.27388 -26.5,-1.3237 l -30.5,-0.0582 3.5,3.06414 c 4.8336,4.23167 9.3863,6.05714 17,6.81634 8.7908,0.87659 11.9116,0.37125 23,-3.72424 z m 76.4447,3.22753 c 4.7967,-0.76454 12.3672,-4.48746 14.9602,-7.35696 l 1.905,-2.10809 h -29.3216 c -16.1269,0 -29.1154,0.20622 -28.8634,0.45828 1.1663,1.16632 20.0193,7.90696 25.3751,9.07254 5.8226,1.26718 7.6286,1.25973 15.9447,-0.0658 z m -69.5135,-15.51092 c -23.2114,-7.74034 -35.5636,-7.33141 -46.0898,1.52584 l -2.9949,2.52003 30.3267,-0.094 30.3268,-0.094 z m 82.5651,2.04178 c -2.7667,-3.05714 -11.5372,-6.97728 -17.0569,-7.62394 -6.1382,-0.71911 -13.8936,0.65396 -27.4279,4.856 -13.5621,4.21066 -12.2662,4.49929 20.8934,4.65372 25.3625,0.11811 25.402,0.11495 23.5914,-1.88578 z m -122.0767,-7.51838 4.4987,-1.71805 -2.5779,-3.37974 c -1.4178,-1.85886 -3.121,-3.37974 -3.7848,-3.37974 -2.7857,0 -8.5556,9.14274 -8.5556,13.55678 0,1.29875 0.5885,1.12577 2.9605,-0.8701 1.6282,-1.3701 4.9849,-3.26422 7.4591,-4.20915 z m 50.0304,5.70335 c -0.5225,-0.45052 -5.225,-4.12463 -10.45,-8.1647 -5.225,-4.04007 -15.0598,-12.78397 -21.8551,-19.43088 l -12.3551,-12.0853 0.6774,5 c 1.4207,10.48486 7.602,19.5261 17.1922,25.14632 2.5444,1.49108 9.6243,4.41151 15.7333,6.48985 12.2652,4.17274 12.4126,4.21333 11.0573,3.04471 z m 74.1766,-4.4885 c -0.9142,-2.39372 -3.0352,-5.66625 -4.7134,-7.2723 l -3.0513,-2.92008 -2.8592,3.49995 -2.8592,3.49996 5.6782,2.81096 c 3.1231,1.54603 6.3265,3.44784 7.1187,4.22624 2.2566,2.21713 2.4938,0.88839 0.6862,-3.84473 z m -46.0912,0.79506 c 16.0224,-5.93672 25.5073,-13.64023 29.3108,-23.80594 1.1846,-3.16609 2.1538,-7.091 2.1538,-8.72203 0,-2.86316 -0.2458,-2.70682 -7.1204,4.53036 -3.9162,4.12272 -12.5372,11.88658 -19.1579,17.25301 -6.6207,5.36644 -13.204,10.77773 -14.6297,12.0251 l -2.592,2.26794 3,-0.65609 c 1.65,-0.36084 5.7159,-1.6624 9.0354,-2.89235 z m -24.5354,1.90254 c 0,-0.33551 -1.4594,-3.37301 -3.243,-6.75 -4.9723,-9.41386 -19.0965,-23.53193 -28.0354,-28.02307 -3.9719,-1.99561 -8.7356,-3.91733 -10.586,-4.27051 -3.1615,-0.60342 -3.2977,-0.51768 -2.2595,1.42222 1.644,3.07185 23.3112,23.1455 33.6239,31.15094 8.5797,6.66026 10.5,7.84356 10.5,6.47042 z m 21.5,-9.05205 c 14.775,-11.86095 27.0076,-22.83778 29.7635,-26.70799 l 2.0766,-2.91633 -3.9201,0.68704 c -6.2507,1.09552 -15.9089,6.2795 -21.8991,11.75424 -7.3071,6.67828 -21.4599,26.88021 -18.7966,26.83069 0.4266,-0.008 6.1757,-4.34938 12.7757,-9.64765 z m -9.4527,-9.35312 c 3.8062,-13.20253 4.4595,-20.81361 2.5615,-29.844 -1.5165,-7.21518 -4.9613,-14.52857 -8.0512,-17.09298 -1.4052,-1.16618 -1.5494,1.97398 -1.4734,32.07973 l 0.084,33.37244 2.0678,-4.5 c 1.1373,-2.475 3.3022,-8.78184 4.811,-14.01519 z m -9.7918,-42.23714 -0.7555,-5.75233 -3.2586,4.7856 c -8.2687,12.14329 -7.8855,32.02206 1.023,53.07322 l 3.2356,7.64584 0.2555,-27 c 0.1405,-14.85 -0.084,-29.58855 -0.5,-32.75233 z m -37.2555,53.78845 c 0,-0.25513 -1.9125,-2.26888 -4.25,-4.475 -4.3068,-4.06464 -8.4457,-5.17233 -11.6797,-3.12575 -1.1796,0.74647 -0.952,1.53101 1.3009,4.48469 2.5929,3.39942 3.0305,3.57994 8.6797,3.57994 3.272,0 5.9491,-0.20875 5.9491,-0.46388 z m 92.1277,-3.15849 c 1.5797,-1.5135 2.8723,-3.10028 2.8723,-3.52618 0,-0.4259 -1.8708,-1.2781 -4.1573,-1.89378 l -4.1572,-1.11943 -4.8334,4.83088 -4.8334,4.83088 6.1183,-0.18528 c 5.1739,-0.15667 6.5618,-0.61008 8.9907,-2.93709 z m 11.9496,-7.34896 c -1.1572,-3.80993 -2.4916,-7.16667 -2.9653,-7.4594 -0.4736,-0.29273 -1.0789,1.73421 -1.3451,4.50431 -0.4416,4.59643 -0.2123,5.31575 2.6246,8.23149 1.7096,1.75721 3.2618,2.84749 3.4492,2.42285 0.1873,-0.42465 -0.6062,-3.88931 -1.7634,-7.69925 z m -125.9609,-3.52867 -0.8099,-5 -2.0743,4.5 c -1.1408,2.475 -2.3842,6.3 -2.7631,8.5 l -0.689,4 3.5731,-3.5 c 3.468,-3.39707 3.5493,-3.64704 2.7632,-8.5 z m 9.7279,2.61739 c 1.1068,-0.70148 1.0478,-1.42529 -0.3339,-4.09721 -0.923,-1.78487 -1.93,-5.68555 -2.2379,-8.66818 -0.6304,-6.10829 -2.1157,-6.58649 -3.9661,-1.27689 -1.498,4.29862 -1.6267,10.45803 -0.2713,12.99063 1.074,2.00673 4.4737,2.5318 6.8092,1.05165 z m 38.7639,-4.70702 c -1.9627,-7.44032 -4.4318,-12.04826 -8.2541,-15.40428 -1.883,-1.65335 -3.7977,-3.00609 -4.2547,-3.00609 -1.5671,0 0.6308,7.99394 3.3117,12.04504 2.9716,4.49039 9.6874,12.18973 10.1923,11.68489 0.1776,-0.17762 -0.2702,-2.57142 -0.9952,-5.31956 z m 34.9932,-8.11244 c 1.6688,-2.76899 2.4243,-5.30933 2.2155,-7.44877 l -0.3169,-3.24671 -3.8011,3.34722 c -2.0906,1.84097 -4.4885,4.67653 -5.3287,6.30125 -1.8066,3.49367 -4.3602,11.61884 -4.321,13.74908 0.034,1.87425 8.1362,-7.03389 11.5522,-12.70207 z m 35.7683,11.45207 c 1.0446,-3.89785 0.6863,-8.56944 -0.9757,-12.72328 -1.826,-4.56366 -3.3894,-4.434 -3.4038,0.2823 -0.01,1.75504 -1.0973,5.52685 -2.4266,8.3818 -2.6441,5.67904 -2.5019,5.92572 3.5697,6.19318 1.9385,0.0854 2.7925,-0.4777 3.2364,-2.134 z m -17.8697,-19.31803 c 3.3,-0.99266 6.3738,-2.11733 6.8308,-2.49926 1.5499,-1.29541 -9.1747,-3.14186 -14.219,-2.44809 -4.713,0.6482 -4.9468,0.83063 -5.569,4.34599 -0.3572,2.01817 -0.9044,4.53125 -1.216,5.58464 -0.5135,1.73613 -0.1578,1.67707 3.8033,-0.63159 2.4034,-1.40077 7.0699,-3.35902 10.3699,-4.35169 z m -68.1212,0.31553 c -0.4841,-3.5324 -1.1136,-4.70971 -2.7532,-5.14974 -4.5839,-1.23017 -16.6256,-0.26093 -16.6256,1.33819 0,0.37727 2.1507,1.23718 4.7795,1.9109 2.6287,0.67373 7.0162,2.51212 9.75,4.08531 2.7337,1.5732 5.0844,2.75557 5.2237,2.6275 0.1393,-0.12807 -0.029,-2.29354 -0.3744,-4.81216 z m 13.6212,-4.23331 c 0,-6.46974 -0.01,-6.49244 -4.0404,-9.15961 -4.4206,-2.92538 -5.0697,-2.67553 -6.8726,2.64542 -1.1389,3.36101 -1.0553,3.59928 2.1056,6 1.8103,1.375 4.1951,3.50437 5.2995,4.73193 1.1043,1.22756 2.3454,2.24006 2.7579,2.25 0.4125,0.01 0.75,-2.90054 0.75,-6.46774 z m 38.5948,-5.44494 c -0.2903,-1.88691 -1.2081,-4.11103 -2.0395,-4.9425 -1.349,-1.34901 -1.9089,-1.19032 -5.2008,1.47406 -2.029,1.64219 -3.6138,3.30382 -3.5218,3.6925 0.092,0.38868 0.1673,3.17933 0.1673,6.20145 v 5.49476 l 5.5613,-4.24476 c 5.205,-3.97277 5.5275,-4.46459 5.0335,-7.67551 z m 21.8758,0.48109 c -3.5386,-4.63931 -9.8178,-7.55034 -16.2864,-7.55034 -2.8513,0 -5.1774,0.1125 -5.1691,0.25 0.01,0.1375 0.6103,2.24018 1.3376,4.67262 l 1.3223,4.42262 6.4125,-0.1663 c 3.5268,-0.0915 7.9875,0.23479 9.9125,0.72502 1.925,0.49022 3.8604,0.93738 4.3009,0.99368 0.4404,0.0563 -0.3832,-1.44999 -1.8303,-3.3473 z m -81.8046,0.99894 c 3.9414,-0.0271 7.3692,-0.27428 7.6174,-0.54928 0.2482,-0.275 0.7563,-2.1875 1.1292,-4.25 l 0.678,-3.75 -4.2953,0.022 c -5.0458,0.0258 -10.9046,2.63127 -15.7953,7.02436 l -3.5,3.14388 3.5,-0.79582 c 1.925,-0.4377 6.7247,-0.81799 10.666,-0.8451 z m 29.0029,-20.20746 c -0.6642,-0.63992 -8.3336,2.93197 -10.3556,4.82294 -4.5528,4.25783 -4.6297,5.35468 -0.565,8.05213 l 3.6934,2.45103 3.6981,-7.58166 c 2.0339,-4.16991 3.6221,-7.65491 3.5291,-7.74444 z m 23.5525,12.30718 3.7215,-2.28858 -4.2215,-4.12212 c -3.7297,-3.64191 -8.1801,-6.2383 -10.6931,-6.2383 -0.8643,0 6.0721,14.82039 6.9717,14.89571 0.275,0.023 2.1746,-0.98799 4.2214,-2.24671 z m -39.0262,-5.33609 c 5.128,-4.9129 3.0892,-5.28063 -5.9452,-1.07233 -5.2292,2.43578 -5.4245,3.75942 -0.5548,3.75942 2.6478,0 4.4904,-0.76175 6.5,-2.68709 z m 53.8048,1.92764 c 0,-0.4177 -0.912,-1.32898 -2.0266,-2.02506 -3.113,-1.9441 -11.9734,-5.27303 -11.9734,-4.4985 0,0.37829 1.4382,2.17172 3.1961,3.9854 2.5123,2.59204 4.0101,3.29761 7,3.29761 2.0921,0 3.8039,-0.34175 3.8039,-0.75945 z"
         id="path4"
         sodipodi:nodetypes="sssccccssssssssssssssscccccccsssscssscsccsssssscssssccccccssscccssssssssscccccssssssscsssssssssssscscssssssscsscssscscssscsssscsssscssssssssssssssscssssscsssssscccssssssscssssssssssssssssssssssssscssssssssssssscsssscssssssssscssssssssssssssssscsssssscssssssscccssssssscsssssssscsssssscccssssssssscssssssssssscsssscssccsccccsscscssssssssscccssssssssscsscsssssssssssssssscsscssscsssssssssscssssscsssssssssssscsssscscssssssscsscssscsscscscssssssssssssss" /></g></g></svg>
