<?xml version="1.0" encoding="UTF-8" standalone="no"?>
<!-- Created with Inkscape (http://www.inkscape.org/) -->

<svg
   width="219.85117"
   height="243.27936"
   viewBox="0 0 219.85117 243.27936"
   version="1.1"
   id="svg1"
   xml:space="preserve"
   inkscape:export-filename="luxury.svg"
   inkscape:export-xdpi="96"
   inkscape:export-ydpi="96"
   xmlns:inkscape="http://www.inkscape.org/namespaces/inkscape"
   xmlns:sodipodi="http://sodipodi.sourceforge.net/DTD/sodipodi-0.dtd"
   xmlns="http://www.w3.org/2000/svg"
   xmlns:svg="http://www.w3.org/2000/svg"><sodipodi:namedview
     id="namedview1"
     pagecolor="#ffffff"
     bordercolor="#000000"
     borderopacity="0.25"
     inkscape:showpageshadow="2"
     inkscape:pageopacity="0.0"
     inkscape:pagecheckerboard="0"
     inkscape:deskcolor="#d1d1d1"
     inkscape:document-units="px"
     showguides="false"
     inkscape:zoom="0.50610513"
     inkscape:cx="718.23022"
     inkscape:cy="425.80086"
     inkscape:window-width="1920"
     inkscape:window-height="991"
     inkscape:window-x="-9"
     inkscape:window-y="-9"
     inkscape:window-maximized="1"
     inkscape:current-layer="layer1"
     inkscape:export-bgcolor="#ffffff6c"><inkscape:page
       x="0"
       y="0"
       width="219.85117"
       height="243.27936"
       id="page2"
       margin="0"
       bleed="0" /></sodipodi:namedview><defs
     id="defs1" /><g
     inkscape:label="Capa 1"
     inkscape:groupmode="layer"
     id="layer1"
     transform="translate(-54.71918,-46.490082)"><path
       style="fill:#000000;stroke-width:0.966285"
       d="m 123.09603,288.98248 c -1.1218,-1.12206 -0.8153,-12.84773 0.3549,-13.57098 1.5462,-0.95555 3.3638,4.64132 2.6149,8.05107 -0.6151,2.80112 -0.4532,2.93806 3.8394,3.25279 6.9279,0.50789 6.6156,2.97199 -0.3765,2.97199 -3.1502,0 -6.0446,-0.3172 -6.4327,-0.70487 z m 24.6725,-0.045 c -9.0206,-3.31681 -5.3323,-15.21231 4.2012,-13.54962 3.4269,0.59772 8.4875,4.69731 8.4875,6.87593 0,0.50452 -1.2317,2.38125 -2.7375,4.17056 -2.6714,3.17486 -5.9092,3.98931 -9.9512,2.50313 z m 6.4141,-2.45922 c 4.0026,-2.14232 1.4937,-9.47922 -3.2419,-9.47922 -2.4105,0 -5.2869,2.72827 -5.2869,5.01485 0,2.16286 3.0494,5.55897 4.9916,5.55897 0.8204,0 2.4121,-0.49256 3.5372,-1.0946 z m 24.24996,0.56591 c -3.03506,-3.23064 -6.34436,-3.50641 -6.34436,-0.52871 0,1.17487 -0.7048,2.11478 -1.586,2.11478 -1.247,0 -1.5859,-1.46859 -1.5859,-6.87298 v -6.87298 h 4.1606 c 8.31146,0 12.61086,3.47399 9.10026,7.35308 -1.4056,1.55367 -1.5492,2.453 -0.6567,4.12064 2.2645,4.23124 0.5916,4.60294 -3.0879,0.68617 z m 2.1146,-6.89568 c 0,-1.55162 -4.85146,-3.5427 -6.80526,-2.79295 -0.9095,0.34899 -1.6537,1.36321 -1.6537,2.25378 0,1.18421 1.1364,1.61926 4.2294,1.61926 2.32646,0 4.22956,-0.48603 4.22956,-1.08009 z m 23.9519,7.96276 c -1.866,-1.86603 -6.2676,-2.0801 -9.3086,-0.45272 -1.1746,0.62867 -2.3952,0.88368 -2.7122,0.56666 -0.9283,-0.92825 4.1111,-12.41949 5.7166,-13.03557 2.1852,-0.83857 5.1144,2.34113 7.5455,8.19106 2.212,5.32283 1.6174,7.58922 -1.2413,4.73057 z m -2.8204,-5.03227 c 0,-0.72694 -0.4849,-2.03547 -1.0573,-2.90779 -0.9254,-1.40985 -1.1568,-1.40985 -2.0824,0 -1.6614,2.53077 -1.2431,4.22951 1.0414,4.22951 1.1629,0 2.1073,-0.59476 2.0983,-1.32172 z m 15.5246,5.90372 c -0.3878,-0.3877 -0.705,-3.48055 -0.705,-6.87296 0,-4.6924 0.3678,-6.16808 1.5382,-6.16808 1.6902,0 3.3237,6.34368 2.312,8.97976 -0.477,1.24284 0.2548,1.59763 3.32,1.61023 5.1022,0.0208 7.743,1.5405 4.2859,2.46615 -3.28,0.87823 -9.8671,0.86898 -10.7511,-0.0164 z m -115.25466,-1.05738 c -0.3875,-0.3877 -0.7047,-3.48053 -0.7047,-6.87298 v -6.16806 h 5.2004 c 7.7137,0 10.3293,1.46054 3.7872,2.11476 -6.7461,0.6746 -7.4345,3.43065 -1.0572,4.23294 3.1736,0.39925 3.7459,0.7292 2.2923,1.32172 -1.0651,0.4343 -3.0872,0.78964 -4.4936,0.78964 -2.0225,0 -2.5569,0.55252 -2.5569,2.64344 0,2.56719 -1.0299,3.37614 -2.4675,1.93854 z M 54.719182,254.39827 c 0,-1.48939 17.02756,-43.4762 18.63939,-45.96119 0.12837,-0.19847 1.26714,-0.0332 2.52978,0.36771 1.50807,0.47864 3.54029,3.3495 5.92361,8.36806 5.4532,11.48298 14.12967,35.90987 13.12057,36.9377 -1.8503,1.88406 -4.90677,-1.51963 -8.08727,-9.00521 -3.8008,-8.94642 -3.5014,-8.87323 -14.7577,-3.60759 -5.3319,2.49414 -8.63315,4.90603 -11.49421,8.39767 -3.40575,4.15628 -5.87417,6.04838 -5.87417,4.50285 z m 25.72479,-19.69451 c 1.13189,0 1.79719,-0.57118 1.53939,-1.32172 -2.68633,-7.82046 -6.73999,-17.71111 -7.25891,-17.71111 -0.50656,0 -8.17757,17.10503 -11.26931,25.12864 -0.28333,0.73564 2.97436,-0.33495 7.24005,-2.37912 4.26537,-2.04416 8.65241,-3.71669 9.74878,-3.71669 z m 44.701158,17.7517 c -7.0197,-4.12315 -8.0431,-7.39611 -8.0245,-25.66554 0.021,-17.31427 0.5132,-19.44363 4.0789,-17.53525 2.136,1.14315 2.2494,1.97908 2.2494,16.60312 0,17.18927 1.1416,21.48763 6.4341,24.22458 3.6373,1.88088 10.1011,1.96951 13.6242,0.1867 1.4365,-0.72686 3.6968,-2.93138 5.0225,-4.89897 2.2398,-3.32344 2.411,-4.68808 2.411,-19.21938 0,-9.93787 0.411,-15.8961 1.1278,-16.33892 0.6201,-0.38334 1.3567,-0.4678 1.637,-0.18768 0.2801,0.2801 0.5055,7.92756 0.5006,16.99444 0,18.34654 -0.6898,20.91049 -6.6813,25.17677 -5.1354,3.65666 -16.6977,3.99765 -22.3797,0.66006 z m 54.60926,1.56598 c -1.002,-0.34948 -1.3218,-5.94096 -1.3218,-23.10662 v -22.64557 h 8.3147 c 18.1766,0 25.5212,3.67648 25.5212,12.7748 0,7.71707 -2.781,10.80774 -11.3662,12.63084 l -5.5511,1.17871 4.4371,5.26202 c 2.4402,2.89411 6.7783,6.94422 9.64,9.00023 3.7383,2.68562 4.8805,4.06097 4.057,4.88458 -2.7768,2.77661 -15.6421,-7.05256 -22.0684,-16.86 -1.0714,-1.63529 -2.6253,-2.43667 -4.7254,-2.43667 -3.0517,0 -3.1246,0.1235 -2.9565,5.02258 0.4533,13.20761 -0.2152,15.60853 -3.9806,14.2951 z m 21.9049,-24.05749 c 4.266,-2.20596 5.9334,-7.61222 3.8705,-12.54926 -1.8826,-4.50496 -6.6782,-6.29873 -15.4661,-5.78473 l -5.8155,0.34015 -0.3042,9.78076 -0.3038,9.78077 h 7.4939 c 4.5539,0 8.6831,-0.61499 10.5252,-1.56769 z m 32.224,23.67273 c -0.3618,-0.58573 3.5233,-10.79509 8.6336,-22.6875 12.5669,-29.24387 12.0587,-29.30932 25.0536,3.2259 3.252,8.14184 6.2409,16.16446 6.6421,17.82809 0.6783,2.81111 0.5515,2.97074 -1.7934,2.26025 -3.398,-1.02954 -3.4094,-1.04605 -6.7399,-9.68867 l -2.9199,-7.5758 -4.5781,1.37783 c -7.97,2.39868 -18.009,8.64113 -19.436,12.08573 -1.3853,3.3451 -3.7873,4.91315 -4.862,3.17417 z m 23.5884,-18.35702 c 1.8902,-0.40916 3.4367,-1.13264 3.4367,-1.60774 0,-1.44027 -6.1757,-16.1403 -7.2187,-17.18366 -0.5933,-0.59314 -3.0916,4.04146 -6.3942,11.8607 -2.9811,7.05879 -5.4201,13.04857 -5.4201,13.31058 0,0.26198 2.736,-0.89891 6.0801,-2.57981 3.344,-1.68087 7.6262,-3.39092 9.5162,-3.80007 z m -94.17266,-48.8409 c -0.4001,-0.39981 -0.7271,-9.3853 -0.7271,-19.96775 v -19.24084 l -6.4028,-1.35873 c -15.4685,-3.28269 -31.5692,-18.4031 -35.4106,-33.25517 l -1.1044,-4.26946 -7.3547,-0.25848 c -10.262,-0.36071 -14.227698,-1.16813 -14.227698,-2.89677 0,-3.60907 23.034298,-3.25795 35.173198,0.53613 11.6016,3.62629 20.4994,11.44955 27.0299,23.76676 l 2.2423,4.22952 -0.2369,-13.08575 -0.237,-13.08573 -6.8731,-2.3324 c -10.3471,-3.51141 -14.8877,-6.187787 -20.2825,-11.954997 -8.0888,-8.64755 -11.5982,-17.84318 -13.058,-34.21241 -0.9555,-10.72035 0.027,-12.56678 6.6788,-12.55007 7.3623,0.0195 15.6342,2.55884 21.9174,6.73076 l 5.5597,3.69136 3.343,-4.15997 c 1.8387,-2.28794 4.1331,-4.15993 5.099,-4.15993 0.9658,0 3.494,1.69707 5.6182,3.77122 l 3.8619,3.77119 5.17046,-3.27952 c 6.4992,-4.12264 13.99,-6.37764 21.1856,-6.37764 7.3344,0 8.2958,1.65367 7.3226,12.59781 -1.4782,16.63048 -5.6257,26.95296 -14.1848,35.30446 -5.9281,5.784327 -12.9995,9.661287 -20.81016,11.409197 l -5.7898,1.29573 0.027,13.31335 0.027,13.31334 3.3469,-6.16988 c 4.4549,-8.21262 12.72776,-16.41314 20.25366,-20.07729 5.0461,-2.45676 8.3129,-3.15389 18.4644,-3.9406 13.6187,-1.05541 22.3786,-0.41245 22.3786,1.64255 0,1.7194 -4.8489,2.6394 -13.9114,2.6394 -6.0283,0 -7.4039,0.32286 -7.8842,1.85039 -5.8871,18.73294 -18.4703,31.49816 -35.33046,35.84147 l -7.329,1.888 -0.2867,19.51027 c -0.27,18.33535 -0.8688,21.92271 -3.2611,19.53048 z m -3.486,-46.63485 c -1.4235,-6.04676 -8.2344,-17.37292 -12.9933,-21.60724 -5.1473,-4.57984 -13.2584,-8.83187 -19.0616,-9.99245 l -3.4884,-0.69773 0.7772,3.59232 c 2.8396,13.12526 13.7993,24.08331 30.0929,30.0886 5.2409,1.93165 5.4396,1.87278 4.6732,-1.3835 z m 15.9897,0.7884 c 8.12116,-2.79416 15.63286,-7.71034 19.99286,-13.08496 3.5302,-4.35165 8.0981,-12.67632 9.5839,-17.46549 0.7587,-2.44565 0.6344,-2.51414 -3.5461,-1.95346 -10.3193,1.38414 -23.461,11.83344 -28.91606,22.99211 -2.7854,5.69801 -4.6999,11.6312 -3.7526,11.6312 0.2626,0 3.2498,-0.95374 6.638,-2.1194 z m -16.05,-43.612327 c -4.9679,-16.73334 -16.1064,-28.49846 -29.3301,-30.97926 l -4.0308,-0.75611 0.7718,3.57564 c 0.4245,1.96661 1.7227,6.19267 2.8851,9.39123 2.8731,7.90663 13.8198,18.85609 21.9852,21.990757 9.2621,3.55562 9.6789,3.38155 7.7188,-3.222257 z m 20.05756,1.90316 c 8.8325,-4.1785 14.0362,-9.31795 18.0683,-17.84612 1.9721,-4.17107 3.8972,-9.36808 4.2776,-11.54893 0.836,-4.79144 0.1016,-4.93703 -8.5628,-1.69554 -10.7943,4.03868 -20.16226,15.07058 -24.04956,28.32198 -0.9268,3.15874 -1.6852,5.954197 -1.6852,6.212097 0,0.98718 6.6143,-0.91852 11.95166,-3.443487 z m -17.45586,-17.2352 c -0.4695,-7.85955 -3.7182,-17.18243 -5.9879,-17.18243 -0.4812,0 -1.7062,1.84274 -2.7217,4.09504 l -1.8467,4.09503 4.2033,6.21444 c 2.3121,3.41789 4.5302,7.28498 4.9294,8.59349 1.3797,4.52036 1.911,2.34947 1.4236,-5.81557 z m 11.9918,-4.64602 c 1.666,-2.11916 3.0291,-4.40294 3.0291,-5.07511 0,-1.8383 -3.0991,-7.4613 -4.1124,-7.4613 -0.4871,0 -2.1404,2.79544 -3.6735,6.21213 -2.0248,4.51143 -2.7752,7.91288 -2.7412,12.42422 l 0.048,6.21207 2.211,-4.22952 c 1.2164,-2.32624 3.5746,-5.96336 5.2403,-8.08249 z m -23.4784,-18.42954 c -3.2534,-3.46307 -12.0744,-6.94694 -19.233,-7.59605 l -6.1993,-0.56216 0.3283,5.17523 c 0.313,4.93187 0.4828,5.19027 3.609,5.49494 1.8044,0.17579 6.8005,2.08691 11.1025,4.24684 l 7.8222,3.92714 2.4101,-4.14542 2.4104,-4.14545 z m 17.1139,-2.27107 c -1.5214,-1.90684 -3.0906,-3.467 -3.4875,-3.46701 -1.0022,-3e-5 -5.0945,5.88109 -5.0945,7.32153 0,0.64877 1.2329,3.13248 2.7396,5.51945 l 2.7397,4.33991 2.9345,-5.12344 2.9343,-5.12345 z m 30.93546,5.37519 4.9962,-0.68482 -0.3162,-4.87175 c -0.302,-4.65391 -0.4708,-4.8866 -3.7747,-5.20469 -4.9619,-0.47776 -13.9349,2.40178 -19.0657,6.1184 l -4.41376,3.19737 2.26066,4.6535 2.2611,4.65345 6.528,-3.58832 c 3.5906,-1.97362 8.7764,-3.89652 11.5244,-4.27314 z"
       id="path3-2"
       sodipodi:nodetypes="sssssssssssssssssssscssssssssssssssscssscsssssssssscssssssssssssssssssssssscssssssssssssscssscsssssssssscccsssssssscsssssssssscscsscsssscccssssscssscssssscccssssssscsccssscssssssssssssccssssssssssssscssscsssccsccsscssscccssssscccsscssscccss" /></g></svg>
